<?xml version="1.0" encoding="UTF-8" standalone="no"?>
<!DOCTYPE svg PUBLIC "-//W3C//DTD SVG 1.1//EN" "http://www.w3.org/Graphics/SVG/1.1/DTD/svg11.dtd">
<!-- Généré par Microsoft Visio, SVG Export array.svg Page 1 -->
<svg xmlns="http://www.w3.org/2000/svg" xmlns:xlink="http://www.w3.org/1999/xlink" xmlns:ev="http://www.w3.org/2001/xml-events"
		xmlns:v="http://schemas.microsoft.com/visio/2003/SVGExtensions/" width="10.7415in" height="3.59084in"
		viewBox="0 0 773.39 258.54" xml:space="preserve" color-interpolation-filters="sRGB" class="st11">
	<v:documentProperties v:langID="1036" v:metric="true" v:viewMarkup="false"/>

	<style type="text/css">
	<![CDATA[
		.st1 {fill:#f2dcda;stroke:#000000;stroke-linecap:round;stroke-linejoin:round;stroke-width:0.24}
		.st2 {fill:#000000;font-family:Calibri;font-size:0.666664em}
		.st3 {fill:#f2f2f2;stroke:#000000;stroke-linecap:round;stroke-linejoin:round;stroke-width:0.24}
		.st4 {fill:#ebf1df;stroke:#000000;stroke-linecap:round;stroke-linejoin:round;stroke-width:0.24}
		.st5 {fill:#ffffff;stroke:#000000;stroke-linecap:round;stroke-linejoin:round;stroke-width:0.24}
		.st6 {stroke:#00b050;stroke-linecap:round;stroke-linejoin:round;stroke-width:1}
		.st7 {fill:#f9c499}
		.st8 {stroke:none;stroke-linecap:round;stroke-linejoin:round;stroke-width:0.75}
		.st9 {stroke:#000000;stroke-linecap:round;stroke-linejoin:round;stroke-width:0.24}
		.st10 {fill:#ffffff;stroke:none;stroke-linecap:round;stroke-linejoin:round;stroke-width:0.24;visibility:hidden}
		.st11 {fill:none;fill-rule:evenodd;font-size:12px;overflow:visible;stroke-linecap:square;stroke-miterlimit:3}
	]]>
	</style>

	<g v:mID="0" v:index="1" v:groupContext="foregroundPage">
		<title>Page 1</title>
		<v:pageProperties v:drawingScale="0.0393701" v:pageScale="0.0393701" v:drawingUnits="24" v:shadowOffsetX="8.50394"
				v:shadowOffsetY="-8.50394"/>
		<v:layer v:name="Lien" v:index="0"/>
		<g id="shape1-1" v:mID="1" v:groupContext="shape" transform="translate(0.12,-157.619)">
			<title>Fonction / sous-routine</title>
			<desc>Root</desc>
			<v:userDefs>
				<v:ud v:nameU="visVersion" v:val="VT0(15):26"/>
			</v:userDefs>
			<v:textBlock v:margins="rect(1,1,1,1)" v:tabSpace="42.5197"/>
			<v:textRect cx="17.7165" cy="240.824" width="35.44" height="35.4331"/>
			<rect x="0" y="223.107" width="35.4331" height="35.4331" class="st1"/>
			<text x="9.99" y="243.22" class="st2" v:langID="1041"><v:paragraph v:horizAlign="1"/><v:tabList/>Root</text>		</g>
		<g id="shape11-4" v:mID="11" v:groupContext="shape" transform="translate(35.5531,-157.619)">
			<title>Fonction / sous-routine.11</title>
			<desc>2</desc>
			<v:userDefs>
				<v:ud v:nameU="visVersion" v:val="VT0(15):26"/>
			</v:userDefs>
			<v:textBlock v:margins="rect(1,1,1,1)" v:tabSpace="42.5197"/>
			<v:textRect cx="17.7165" cy="240.824" width="35.44" height="35.4331"/>
			<rect x="0" y="223.107" width="35.4331" height="35.4331" class="st3"/>
			<text x="15.69" y="243.22" class="st2" v:langID="1041"><v:paragraph v:horizAlign="1"/><v:tabList/>2</text>		</g>
		<g id="shape12-7" v:mID="12" v:groupContext="shape" transform="translate(70.9861,-157.619)">
			<title>Fonction / sous-routine.12</title>
			<desc>3</desc>
			<v:userDefs>
				<v:ud v:nameU="visVersion" v:val="VT0(15):26"/>
			</v:userDefs>
			<v:textBlock v:margins="rect(1,1,1,1)" v:tabSpace="42.5197"/>
			<v:textRect cx="17.7165" cy="240.824" width="35.44" height="35.4331"/>
			<rect x="0" y="223.107" width="35.4331" height="35.4331" class="st4"/>
			<text x="15.69" y="243.22" class="st2" v:langID="1041"><v:paragraph v:horizAlign="1"/><v:tabList/>3</text>		</g>
		<g id="shape13-10" v:mID="13" v:groupContext="shape" transform="translate(106.419,-157.619)">
			<title>Fonction / sous-routine.13</title>
			<desc>4</desc>
			<v:userDefs>
				<v:ud v:nameU="visVersion" v:val="VT0(15):26"/>
			</v:userDefs>
			<v:textBlock v:margins="rect(1,1,1,1)" v:tabSpace="42.5197"/>
			<v:textRect cx="17.7165" cy="240.824" width="35.44" height="35.4331"/>
			<rect x="0" y="223.107" width="35.4331" height="35.4331" class="st3"/>
			<text x="15.69" y="243.22" class="st2" v:langID="1041"><v:paragraph v:horizAlign="1"/><v:tabList/>4</text>		</g>
		<g id="shape14-13" v:mID="14" v:groupContext="shape" transform="translate(140.435,-157.619)">
			<title>Fonction / sous-routine.14</title>
			<desc>5</desc>
			<v:userDefs>
				<v:ud v:nameU="visVersion" v:val="VT0(15):26"/>
			</v:userDefs>
			<v:textBlock v:margins="rect(1,1,1,1)" v:tabSpace="42.5197"/>
			<v:textRect cx="17.7165" cy="240.824" width="35.44" height="35.4331"/>
			<rect x="0" y="223.107" width="35.4331" height="35.4331" class="st3"/>
			<text x="15.69" y="243.22" class="st2" v:langID="1041"><v:paragraph v:horizAlign="1"/><v:tabList/>5</text>		</g>
		<g id="shape15-16" v:mID="15" v:groupContext="shape" transform="translate(175.868,-157.619)">
			<title>Fonction / sous-routine.15</title>
			<desc>6</desc>
			<v:userDefs>
				<v:ud v:nameU="visVersion" v:val="VT0(15):26"/>
			</v:userDefs>
			<v:textBlock v:margins="rect(1,1,1,1)" v:tabSpace="42.5197"/>
			<v:textRect cx="17.7165" cy="240.824" width="35.44" height="35.4331"/>
			<rect x="0" y="223.107" width="35.4331" height="35.4331" class="st3"/>
			<text x="15.69" y="243.22" class="st2" v:langID="1041"><v:paragraph v:horizAlign="1"/><v:tabList/>6</text>		</g>
		<g id="shape16-19" v:mID="16" v:groupContext="shape" transform="translate(211.301,-157.619)">
			<title>Fonction / sous-routine.16</title>
			<desc>7</desc>
			<v:userDefs>
				<v:ud v:nameU="visVersion" v:val="VT0(15):26"/>
			</v:userDefs>
			<v:textBlock v:margins="rect(1,1,1,1)" v:tabSpace="42.5197"/>
			<v:textRect cx="17.7165" cy="240.824" width="35.44" height="35.4331"/>
			<rect x="0" y="223.107" width="35.4331" height="35.4331" class="st3"/>
			<text x="15.69" y="243.22" class="st2" v:langID="1041"><v:paragraph v:horizAlign="1"/><v:tabList/>7</text>		</g>
		<g id="shape17-22" v:mID="17" v:groupContext="shape" transform="translate(246.734,-157.619)">
			<title>Fonction / sous-routine.17</title>
			<desc>8</desc>
			<v:userDefs>
				<v:ud v:nameU="visVersion" v:val="VT0(15):26"/>
			</v:userDefs>
			<v:textBlock v:margins="rect(1,1,1,1)" v:tabSpace="42.5197"/>
			<v:textRect cx="17.7165" cy="240.824" width="35.44" height="35.4331"/>
			<rect x="0" y="223.107" width="35.4331" height="35.4331" class="st4"/>
			<text x="15.69" y="243.22" class="st2" v:langID="1041"><v:paragraph v:horizAlign="1"/><v:tabList/>8</text>		</g>
		<g id="shape18-25" v:mID="18" v:groupContext="shape" transform="translate(282.167,-157.619)">
			<title>Fonction / sous-routine.18</title>
			<desc>9</desc>
			<v:userDefs>
				<v:ud v:nameU="visVersion" v:val="VT0(15):26"/>
			</v:userDefs>
			<v:textBlock v:margins="rect(1,1,1,1)" v:tabSpace="42.5197"/>
			<v:textRect cx="17.7165" cy="240.824" width="35.44" height="35.4331"/>
			<rect x="0" y="223.107" width="35.4331" height="35.4331" class="st4"/>
			<text x="15.69" y="243.22" class="st2" v:langID="1041"><v:paragraph v:horizAlign="1"/><v:tabList/>9</text>		</g>
		<g id="shape19-28" v:mID="19" v:groupContext="shape" transform="translate(317.6,-157.619)">
			<title>Fonction / sous-routine.19</title>
			<desc>10</desc>
			<v:userDefs>
				<v:ud v:nameU="visVersion" v:val="VT0(15):26"/>
			</v:userDefs>
			<v:textBlock v:margins="rect(1,1,1,1)" v:tabSpace="42.5197"/>
			<v:textRect cx="17.7165" cy="240.824" width="35.44" height="35.4331"/>
			<rect x="0" y="223.107" width="35.4331" height="35.4331" class="st4"/>
			<text x="13.66" y="243.22" class="st2" v:langID="1041"><v:paragraph v:horizAlign="1"/><v:tabList/>10</text>		</g>
		<g id="shape20-31" v:mID="20" v:groupContext="shape" transform="translate(353.033,-157.619)">
			<title>Fonction / sous-routine.20</title>
			<desc>11</desc>
			<v:userDefs>
				<v:ud v:nameU="visVersion" v:val="VT0(15):26"/>
			</v:userDefs>
			<v:textBlock v:margins="rect(1,1,1,1)" v:tabSpace="42.5197"/>
			<v:textRect cx="17.7165" cy="240.824" width="35.44" height="35.4331"/>
			<rect x="0" y="223.107" width="35.4331" height="35.4331" class="st3"/>
			<text x="13.66" y="243.22" class="st2" v:langID="1041"><v:paragraph v:horizAlign="1"/><v:tabList/>11</text>		</g>
		<g id="shape21-34" v:mID="21" v:groupContext="shape" transform="translate(388.466,-157.619)">
			<title>Fonction / sous-routine.21</title>
			<desc>12</desc>
			<v:userDefs>
				<v:ud v:nameU="visVersion" v:val="VT0(15):26"/>
			</v:userDefs>
			<v:textBlock v:margins="rect(1,1,1,1)" v:tabSpace="42.5197"/>
			<v:textRect cx="17.7165" cy="240.824" width="35.44" height="35.4331"/>
			<rect x="0" y="223.107" width="35.4331" height="35.4331" class="st3"/>
			<text x="13.66" y="243.22" class="st2" v:langID="1041"><v:paragraph v:horizAlign="1"/><v:tabList/>12</text>		</g>
		<g id="shape22-37" v:mID="22" v:groupContext="shape" transform="translate(422.482,-157.619)">
			<title>Fonction / sous-routine.22</title>
			<desc>13</desc>
			<v:userDefs>
				<v:ud v:nameU="visVersion" v:val="VT0(15):26"/>
			</v:userDefs>
			<v:textBlock v:margins="rect(1,1,1,1)" v:tabSpace="42.5197"/>
			<v:textRect cx="17.7165" cy="240.824" width="35.44" height="35.4331"/>
			<rect x="0" y="223.107" width="35.4331" height="35.4331" class="st3"/>
			<text x="13.66" y="243.22" class="st2" v:langID="1041"><v:paragraph v:horizAlign="1"/><v:tabList/>13</text>		</g>
		<g id="shape23-40" v:mID="23" v:groupContext="shape" transform="translate(457.915,-157.619)">
			<title>Fonction / sous-routine.23</title>
			<desc>14</desc>
			<v:userDefs>
				<v:ud v:nameU="visVersion" v:val="VT0(15):26"/>
			</v:userDefs>
			<v:textBlock v:margins="rect(1,1,1,1)" v:tabSpace="42.5197"/>
			<v:textRect cx="17.7165" cy="240.824" width="35.44" height="35.4331"/>
			<rect x="0" y="223.107" width="35.4331" height="35.4331" class="st3"/>
			<text x="13.66" y="243.22" class="st2" v:langID="1041"><v:paragraph v:horizAlign="1"/><v:tabList/>14</text>		</g>
		<g id="shape24-43" v:mID="24" v:groupContext="shape" transform="translate(493.348,-157.619)">
			<title>Fonction / sous-routine.24</title>
			<desc>15</desc>
			<v:userDefs>
				<v:ud v:nameU="visVersion" v:val="VT0(15):26"/>
			</v:userDefs>
			<v:textBlock v:margins="rect(1,1,1,1)" v:tabSpace="42.5197"/>
			<v:textRect cx="17.7165" cy="240.824" width="35.44" height="35.4331"/>
			<rect x="0" y="223.107" width="35.4331" height="35.4331" class="st3"/>
			<text x="13.66" y="243.22" class="st2" v:langID="1041"><v:paragraph v:horizAlign="1"/><v:tabList/>15</text>		</g>
		<g id="shape25-46" v:mID="25" v:groupContext="shape" transform="translate(528.781,-157.619)">
			<title>Fonction / sous-routine.25</title>
			<desc>16</desc>
			<v:userDefs>
				<v:ud v:nameU="visVersion" v:val="VT0(15):26"/>
			</v:userDefs>
			<v:textBlock v:margins="rect(1,1,1,1)" v:tabSpace="42.5197"/>
			<v:textRect cx="17.7165" cy="240.824" width="35.44" height="35.4331"/>
			<rect x="0" y="223.107" width="35.4331" height="35.4331" class="st4"/>
			<text x="13.66" y="243.22" class="st2" v:langID="1041"><v:paragraph v:horizAlign="1"/><v:tabList/>16</text>		</g>
		<g id="shape32-49" v:mID="32" v:groupContext="shape" transform="translate(562.089,-157.619)">
			<title>Fonction / sous-routine.32</title>
			<desc>17</desc>
			<v:userDefs>
				<v:ud v:nameU="visVersion" v:val="VT0(15):26"/>
			</v:userDefs>
			<v:textBlock v:margins="rect(1,1,1,1)" v:tabSpace="42.5197"/>
			<v:textRect cx="17.7165" cy="240.824" width="35.44" height="35.4331"/>
			<rect x="0" y="223.107" width="35.4331" height="35.4331" class="st4"/>
			<text x="13.66" y="243.22" class="st2" v:langID="1041"><v:paragraph v:horizAlign="1"/><v:tabList/>17</text>		</g>
		<g id="shape33-52" v:mID="33" v:groupContext="shape" transform="translate(597.522,-157.619)">
			<title>Fonction / sous-routine.33</title>
			<desc>18</desc>
			<v:userDefs>
				<v:ud v:nameU="visVersion" v:val="VT0(15):26"/>
			</v:userDefs>
			<v:textBlock v:margins="rect(1,1,1,1)" v:tabSpace="42.5197"/>
			<v:textRect cx="17.7165" cy="240.824" width="35.44" height="35.4331"/>
			<rect x="0" y="223.107" width="35.4331" height="35.4331" class="st4"/>
			<text x="13.66" y="243.22" class="st2" v:langID="1041"><v:paragraph v:horizAlign="1"/><v:tabList/>18</text>		</g>
		<g id="shape34-55" v:mID="34" v:groupContext="shape" transform="translate(631.537,-157.619)">
			<title>Fonction / sous-routine.34</title>
			<desc>19</desc>
			<v:userDefs>
				<v:ud v:nameU="visVersion" v:val="VT0(15):26"/>
			</v:userDefs>
			<v:textBlock v:margins="rect(1,1,1,1)" v:tabSpace="42.5197"/>
			<v:textRect cx="17.7165" cy="240.824" width="35.44" height="35.4331"/>
			<rect x="0" y="223.107" width="35.4331" height="35.4331" class="st4"/>
			<text x="13.66" y="243.22" class="st2" v:langID="1041"><v:paragraph v:horizAlign="1"/><v:tabList/>19</text>		</g>
		<g id="shape35-58" v:mID="35" v:groupContext="shape" transform="translate(666.97,-157.619)">
			<title>Fonction / sous-routine.35</title>
			<desc>20</desc>
			<v:userDefs>
				<v:ud v:nameU="visVersion" v:val="VT0(15):26"/>
			</v:userDefs>
			<v:textBlock v:margins="rect(1,1,1,1)" v:tabSpace="42.5197"/>
			<v:textRect cx="17.7165" cy="240.824" width="35.44" height="35.4331"/>
			<rect x="0" y="223.107" width="35.4331" height="35.4331" class="st3"/>
			<text x="13.66" y="243.22" class="st2" v:langID="1041"><v:paragraph v:horizAlign="1"/><v:tabList/>20</text>		</g>
		<g id="shape36-61" v:mID="36" v:groupContext="shape" transform="translate(702.403,-157.619)">
			<title>Fonction / sous-routine.36</title>
			<desc>21</desc>
			<v:userDefs>
				<v:ud v:nameU="visVersion" v:val="VT0(15):26"/>
			</v:userDefs>
			<v:textBlock v:margins="rect(1,1,1,1)" v:tabSpace="42.5197"/>
			<v:textRect cx="17.7165" cy="240.824" width="35.44" height="35.4331"/>
			<rect x="0" y="223.107" width="35.4331" height="35.4331" class="st4"/>
			<text x="13.66" y="243.22" class="st2" v:langID="1041"><v:paragraph v:horizAlign="1"/><v:tabList/>21</text>		</g>
		<g id="shape37-64" v:mID="37" v:groupContext="shape" transform="translate(737.837,-157.619)">
			<title>Fonction / sous-routine.37</title>
			<desc>...</desc>
			<v:userDefs>
				<v:ud v:nameU="visVersion" v:val="VT0(15):26"/>
			</v:userDefs>
			<v:textBlock v:margins="rect(1,1,1,1)" v:tabSpace="42.5197"/>
			<v:textRect cx="17.7165" cy="240.824" width="35.44" height="35.4331"/>
			<rect x="0" y="223.107" width="35.4331" height="35.4331" class="st5"/>
			<text x="14.69" y="243.22" class="st2" v:langID="1041"><v:paragraph v:horizAlign="1"/><v:tabList/>...</text>		</g>
		<g id="shape38-67" v:mID="38" v:groupContext="shape" transform="translate(0.12,-30.0598)">
			<title>Fonction / sous-routine.38</title>
			<desc>3</desc>
			<v:userDefs>
				<v:ud v:nameU="visVersion" v:val="VT0(15):26"/>
			</v:userDefs>
			<v:textBlock v:margins="rect(1,1,1,1)" v:tabSpace="42.5197"/>
			<v:textRect cx="17.7165" cy="240.824" width="35.44" height="35.4331"/>
			<rect x="0" y="223.107" width="35.4331" height="35.4331" class="st4"/>
			<text x="15.69" y="243.22" class="st2" v:langID="1041"><v:paragraph v:horizAlign="1"/><v:tabList/>3</text>		</g>
		<g id="shape39-70" v:mID="39" v:groupContext="shape" transform="translate(35.5531,-30.0598)">
			<title>Fonction / sous-routine.39</title>
			<desc>8</desc>
			<v:userDefs>
				<v:ud v:nameU="visVersion" v:val="VT0(15):26"/>
			</v:userDefs>
			<v:textBlock v:margins="rect(1,1,1,1)" v:tabSpace="42.5197"/>
			<v:textRect cx="17.7165" cy="240.824" width="35.44" height="35.4331"/>
			<rect x="0" y="223.107" width="35.4331" height="35.4331" class="st4"/>
			<text x="15.69" y="243.22" class="st2" v:langID="1041"><v:paragraph v:horizAlign="1"/><v:tabList/>8</text>		</g>
		<g id="shape40-73" v:mID="40" v:groupContext="shape" transform="translate(70.9861,-30.0598)">
			<title>Fonction / sous-routine.40</title>
			<desc>9</desc>
			<v:userDefs>
				<v:ud v:nameU="visVersion" v:val="VT0(15):26"/>
			</v:userDefs>
			<v:textBlock v:margins="rect(1,1,1,1)" v:tabSpace="42.5197"/>
			<v:textRect cx="17.7165" cy="240.824" width="35.44" height="35.4331"/>
			<rect x="0" y="223.107" width="35.4331" height="35.4331" class="st4"/>
			<text x="15.69" y="243.22" class="st2" v:langID="1041"><v:paragraph v:horizAlign="1"/><v:tabList/>9</text>		</g>
		<g id="shape41-76" v:mID="41" v:groupContext="shape" transform="translate(106.419,-30.0598)">
			<title>Fonction / sous-routine.41</title>
			<desc>10</desc>
			<v:userDefs>
				<v:ud v:nameU="visVersion" v:val="VT0(15):26"/>
			</v:userDefs>
			<v:textBlock v:margins="rect(1,1,1,1)" v:tabSpace="42.5197"/>
			<v:textRect cx="17.7165" cy="240.824" width="35.44" height="35.4331"/>
			<rect x="0" y="223.107" width="35.4331" height="35.4331" class="st4"/>
			<text x="13.66" y="243.22" class="st2" v:langID="1041"><v:paragraph v:horizAlign="1"/><v:tabList/>10</text>		</g>
		<g id="shape42-79" v:mID="42" v:groupContext="shape" transform="translate(140.435,-30.0598)">
			<title>Fonction / sous-routine.42</title>
			<desc>16</desc>
			<v:userDefs>
				<v:ud v:nameU="visVersion" v:val="VT0(15):26"/>
			</v:userDefs>
			<v:textBlock v:margins="rect(1,1,1,1)" v:tabSpace="42.5197"/>
			<v:textRect cx="17.7165" cy="240.824" width="35.44" height="35.4331"/>
			<rect x="0" y="223.107" width="35.4331" height="35.4331" class="st4"/>
			<text x="13.66" y="243.22" class="st2" v:langID="1041"><v:paragraph v:horizAlign="1"/><v:tabList/>16</text>		</g>
		<g id="shape43-82" v:mID="43" v:groupContext="shape" transform="translate(175.868,-30.0598)">
			<title>Fonction / sous-routine.43</title>
			<desc>17</desc>
			<v:userDefs>
				<v:ud v:nameU="visVersion" v:val="VT0(15):26"/>
			</v:userDefs>
			<v:textBlock v:margins="rect(1,1,1,1)" v:tabSpace="42.5197"/>
			<v:textRect cx="17.7165" cy="240.824" width="35.44" height="35.4331"/>
			<rect x="0" y="223.107" width="35.4331" height="35.4331" class="st4"/>
			<text x="13.66" y="243.22" class="st2" v:langID="1041"><v:paragraph v:horizAlign="1"/><v:tabList/>17</text>		</g>
		<g id="shape44-85" v:mID="44" v:groupContext="shape" transform="translate(211.301,-30.0598)">
			<title>Fonction / sous-routine.44</title>
			<desc>18</desc>
			<v:userDefs>
				<v:ud v:nameU="visVersion" v:val="VT0(15):26"/>
			</v:userDefs>
			<v:textBlock v:margins="rect(1,1,1,1)" v:tabSpace="42.5197"/>
			<v:textRect cx="17.7165" cy="240.824" width="35.44" height="35.4331"/>
			<rect x="0" y="223.107" width="35.4331" height="35.4331" class="st4"/>
			<text x="13.66" y="243.22" class="st2" v:langID="1041"><v:paragraph v:horizAlign="1"/><v:tabList/>18</text>		</g>
		<g id="shape45-88" v:mID="45" v:groupContext="shape" transform="translate(246.734,-30.0598)">
			<title>Fonction / sous-routine.45</title>
			<desc>19</desc>
			<v:userDefs>
				<v:ud v:nameU="visVersion" v:val="VT0(15):26"/>
			</v:userDefs>
			<v:textBlock v:margins="rect(1,1,1,1)" v:tabSpace="42.5197"/>
			<v:textRect cx="17.7165" cy="240.824" width="35.44" height="35.4331"/>
			<rect x="0" y="223.107" width="35.4331" height="35.4331" class="st4"/>
			<text x="13.66" y="243.22" class="st2" v:langID="1041"><v:paragraph v:horizAlign="1"/><v:tabList/>19</text>		</g>
		<g id="shape46-91" v:mID="46" v:groupContext="shape" transform="translate(282.167,-30.0598)">
			<title>Fonction / sous-routine.46</title>
			<desc>21</desc>
			<v:userDefs>
				<v:ud v:nameU="visVersion" v:val="VT0(15):26"/>
			</v:userDefs>
			<v:textBlock v:margins="rect(1,1,1,1)" v:tabSpace="42.5197"/>
			<v:textRect cx="17.7165" cy="240.824" width="35.44" height="35.4331"/>
			<rect x="0" y="223.107" width="35.4331" height="35.4331" class="st4"/>
			<text x="13.66" y="243.22" class="st2" v:langID="1041"><v:paragraph v:horizAlign="1"/><v:tabList/>21</text>		</g>
		<g id="shape47-94" v:mID="47" v:groupContext="shape" transform="translate(317.6,-30.0598)">
			<title>Fonction / sous-routine.47</title>
			<desc>...</desc>
			<v:userDefs>
				<v:ud v:nameU="visVersion" v:val="VT0(15):26"/>
			</v:userDefs>
			<v:textBlock v:margins="rect(1,1,1,1)" v:tabSpace="42.5197"/>
			<v:textRect cx="17.7165" cy="240.824" width="35.44" height="35.4331"/>
			<rect x="0" y="223.107" width="35.4331" height="35.4331" class="st5"/>
			<text x="14.69" y="243.22" class="st2" v:langID="1041"><v:paragraph v:horizAlign="1"/><v:tabList/>...</text>		</g>
		<g id="shape48-97" v:mID="48" v:groupContext="shape" transform="translate(353.033,-30.0598)">
			<title>Fonction / sous-routine.48</title>
			<desc>...</desc>
			<v:userDefs>
				<v:ud v:nameU="visVersion" v:val="VT0(15):26"/>
			</v:userDefs>
			<v:textBlock v:margins="rect(1,1,1,1)" v:tabSpace="42.5197"/>
			<v:textRect cx="17.7165" cy="240.824" width="35.44" height="35.4331"/>
			<rect x="0" y="223.107" width="35.4331" height="35.4331" class="st5"/>
			<text x="14.69" y="243.22" class="st2" v:langID="1041"><v:paragraph v:horizAlign="1"/><v:tabList/>...</text>		</g>
		<g id="shape49-100" v:mID="49" v:groupContext="shape" transform="translate(388.466,-30.0598)">
			<title>Fonction / sous-routine.49</title>
			<desc>...</desc>
			<v:userDefs>
				<v:ud v:nameU="visVersion" v:val="VT0(15):26"/>
			</v:userDefs>
			<v:textBlock v:margins="rect(1,1,1,1)" v:tabSpace="42.5197"/>
			<v:textRect cx="17.7165" cy="240.824" width="35.44" height="35.4331"/>
			<rect x="0" y="223.107" width="35.4331" height="35.4331" class="st5"/>
			<text x="14.69" y="243.22" class="st2" v:langID="1041"><v:paragraph v:horizAlign="1"/><v:tabList/>...</text>		</g>
		<g id="shape50-103" v:mID="50" v:groupContext="shape" transform="translate(422.482,-30.0598)">
			<title>Fonction / sous-routine.50</title>
			<desc>...</desc>
			<v:userDefs>
				<v:ud v:nameU="visVersion" v:val="VT0(15):26"/>
			</v:userDefs>
			<v:textBlock v:margins="rect(1,1,1,1)" v:tabSpace="42.5197"/>
			<v:textRect cx="17.7165" cy="240.824" width="35.44" height="35.4331"/>
			<rect x="0" y="223.107" width="35.4331" height="35.4331" class="st5"/>
			<text x="14.69" y="243.22" class="st2" v:langID="1041"><v:paragraph v:horizAlign="1"/><v:tabList/>...</text>		</g>
		<g id="shape51-106" v:mID="51" v:groupContext="shape" transform="translate(457.915,-30.0598)">
			<title>Fonction / sous-routine.51</title>
			<desc>...</desc>
			<v:userDefs>
				<v:ud v:nameU="visVersion" v:val="VT0(15):26"/>
			</v:userDefs>
			<v:textBlock v:margins="rect(1,1,1,1)" v:tabSpace="42.5197"/>
			<v:textRect cx="17.7165" cy="240.824" width="35.44" height="35.4331"/>
			<rect x="0" y="223.107" width="35.4331" height="35.4331" class="st5"/>
			<text x="14.69" y="243.22" class="st2" v:langID="1041"><v:paragraph v:horizAlign="1"/><v:tabList/>...</text>		</g>
		<g id="shape52-109" v:mID="52" v:groupContext="shape" transform="translate(493.348,-30.0598)">
			<title>Fonction / sous-routine.52</title>
			<desc>...</desc>
			<v:userDefs>
				<v:ud v:nameU="visVersion" v:val="VT0(15):26"/>
			</v:userDefs>
			<v:textBlock v:margins="rect(1,1,1,1)" v:tabSpace="42.5197"/>
			<v:textRect cx="17.7165" cy="240.824" width="35.44" height="35.4331"/>
			<rect x="0" y="223.107" width="35.4331" height="35.4331" class="st5"/>
			<text x="14.69" y="243.22" class="st2" v:langID="1041"><v:paragraph v:horizAlign="1"/><v:tabList/>...</text>		</g>
		<g id="shape53-112" v:mID="53" v:groupContext="shape" transform="translate(528.781,-30.0598)">
			<title>Fonction / sous-routine.53</title>
			<desc>...</desc>
			<v:userDefs>
				<v:ud v:nameU="visVersion" v:val="VT0(15):26"/>
			</v:userDefs>
			<v:textBlock v:margins="rect(1,1,1,1)" v:tabSpace="42.5197"/>
			<v:textRect cx="17.7165" cy="240.824" width="35.44" height="35.4331"/>
			<rect x="0" y="223.107" width="35.4331" height="35.4331" class="st5"/>
			<text x="14.69" y="243.22" class="st2" v:langID="1041"><v:paragraph v:horizAlign="1"/><v:tabList/>...</text>		</g>
		<g id="shape54-115" v:mID="54" v:groupContext="shape" transform="translate(562.089,-30.0598)">
			<title>Fonction / sous-routine.54</title>
			<desc>...</desc>
			<v:userDefs>
				<v:ud v:nameU="visVersion" v:val="VT0(15):26"/>
			</v:userDefs>
			<v:textBlock v:margins="rect(1,1,1,1)" v:tabSpace="42.5197"/>
			<v:textRect cx="17.7165" cy="240.824" width="35.44" height="35.4331"/>
			<rect x="0" y="223.107" width="35.4331" height="35.4331" class="st5"/>
			<text x="14.69" y="243.22" class="st2" v:langID="1041"><v:paragraph v:horizAlign="1"/><v:tabList/>...</text>		</g>
		<g id="shape55-118" v:mID="55" v:groupContext="shape" transform="translate(597.522,-30.0598)">
			<title>Fonction / sous-routine.55</title>
			<desc>...</desc>
			<v:userDefs>
				<v:ud v:nameU="visVersion" v:val="VT0(15):26"/>
			</v:userDefs>
			<v:textBlock v:margins="rect(1,1,1,1)" v:tabSpace="42.5197"/>
			<v:textRect cx="17.7165" cy="240.824" width="35.44" height="35.4331"/>
			<rect x="0" y="223.107" width="35.4331" height="35.4331" class="st5"/>
			<text x="14.69" y="243.22" class="st2" v:langID="1041"><v:paragraph v:horizAlign="1"/><v:tabList/>...</text>		</g>
		<g id="shape56-121" v:mID="56" v:groupContext="shape" transform="translate(631.537,-30.0598)">
			<title>Fonction / sous-routine.56</title>
			<desc>...</desc>
			<v:userDefs>
				<v:ud v:nameU="visVersion" v:val="VT0(15):26"/>
			</v:userDefs>
			<v:textBlock v:margins="rect(1,1,1,1)" v:tabSpace="42.5197"/>
			<v:textRect cx="17.7165" cy="240.824" width="35.44" height="35.4331"/>
			<rect x="0" y="223.107" width="35.4331" height="35.4331" class="st5"/>
			<text x="14.69" y="243.22" class="st2" v:langID="1041"><v:paragraph v:horizAlign="1"/><v:tabList/>...</text>		</g>
		<g id="shape57-124" v:mID="57" v:groupContext="shape" transform="translate(666.97,-30.0598)">
			<title>Fonction / sous-routine.57</title>
			<desc>...</desc>
			<v:userDefs>
				<v:ud v:nameU="visVersion" v:val="VT0(15):26"/>
			</v:userDefs>
			<v:textBlock v:margins="rect(1,1,1,1)" v:tabSpace="42.5197"/>
			<v:textRect cx="17.7165" cy="240.824" width="35.44" height="35.4331"/>
			<rect x="0" y="223.107" width="35.4331" height="35.4331" class="st5"/>
			<text x="14.69" y="243.22" class="st2" v:langID="1041"><v:paragraph v:horizAlign="1"/><v:tabList/>...</text>		</g>
		<g id="shape58-127" v:mID="58" v:groupContext="shape" transform="translate(702.403,-30.0598)">
			<title>Fonction / sous-routine.58</title>
			<desc>...</desc>
			<v:userDefs>
				<v:ud v:nameU="visVersion" v:val="VT0(15):26"/>
			</v:userDefs>
			<v:textBlock v:margins="rect(1,1,1,1)" v:tabSpace="42.5197"/>
			<v:textRect cx="17.7165" cy="240.824" width="35.44" height="35.4331"/>
			<rect x="0" y="223.107" width="35.4331" height="35.4331" class="st5"/>
			<text x="14.69" y="243.22" class="st2" v:langID="1041"><v:paragraph v:horizAlign="1"/><v:tabList/>...</text>		</g>
		<g id="shape59-130" v:mID="59" v:groupContext="shape" transform="translate(737.837,-30.0598)">
			<title>Fonction / sous-routine.59</title>
			<desc>...</desc>
			<v:userDefs>
				<v:ud v:nameU="visVersion" v:val="VT0(15):26"/>
			</v:userDefs>
			<v:textBlock v:margins="rect(1,1,1,1)" v:tabSpace="42.5197"/>
			<v:textRect cx="17.7165" cy="240.824" width="35.44" height="35.4331"/>
			<rect x="0" y="223.107" width="35.4331" height="35.4331" class="st5"/>
			<text x="14.69" y="243.22" class="st2" v:langID="1041"><v:paragraph v:horizAlign="1"/><v:tabList/>...</text>		</g>
		<g id="shape64-133" v:mID="64" v:groupContext="shape" transform="translate(255.592,-193.052)">
			<title>Crochet.64</title>
			<v:userDefs>
				<v:ud v:nameU="visVersion" v:val="VT0(15):26"/>
			</v:userDefs>
			<path d="M0 258.54 A4.01075 4.01075 0 0 1 3.54 255 L41.54 255 A4.01075 4.01075 -180 0 0 45.08 251.45 A4.01075 4.01075
						 -180 0 0 48.62 255 L85.04 255 A4.01075 4.01075 0 0 1 88.58 258.54" class="st6"/>
		</g>
		<g id="shape67-136" v:mID="67" v:groupContext="shape" transform="translate(588.663,359.462) rotate(180)">
			<title>Crochet.67</title>
			<v:userDefs>
				<v:ud v:nameU="visVersion" v:val="VT0(15):26"/>
			</v:userDefs>
			<path d="M0 258.54 A4.01075 4.01075 0 0 1 3.54 255 L22.42 255 A4.01075 4.01075 -180 0 0 25.97 251.45 A4.01075 4.01075
						 -180 0 0 29.51 255 L47.48 255 A4.01075 4.01075 0 0 1 51.02 258.54" class="st6"/>
		</g>
		<g id="shape68-139" v:mID="68" v:groupContext="shape" transform="translate(658.112,359.462) rotate(180)">
			<title>Crochet.68</title>
			<v:userDefs>
				<v:ud v:nameU="visVersion" v:val="VT0(15):26"/>
			</v:userDefs>
			<path d="M0 258.54 A4.01075 4.01075 0 0 1 3.54 255 L22.78 255 A4.01075 4.01075 -180 0 0 26.33 251.45 A4.01075 4.01075
						 -180 0 0 29.87 255 L48.19 255 A4.01075 4.01075 0 0 1 51.73 258.54" class="st6"/>
		</g>
		<g id="shape69-142" v:mID="69" v:groupContext="shape" transform="translate(711.262,-193.052)">
			<title>Crochet.69</title>
			<v:userDefs>
				<v:ud v:nameU="visVersion" v:val="VT0(15):26"/>
			</v:userDefs>
			<path d="M-0 258.54 A3.34229 3.34229 0 0 1 2.95 255.59 L6.06 255.59 A3.34229 3.34229 -180 0 0 9.02 252.63 A3.34229 3.34229
						 -180 0 0 11.97 255.59 L14.76 255.59 A3.34229 3.34229 0 0 1 17.72 258.54" class="st6"/>
		</g>
		<g id="shape72-145" v:mID="72" v:groupContext="shape" v:layerMember="0"
				transform="translate(292.034,-199.994) rotate(-1.91481) scale(-1,1)">
			<title>Lien droit / courbé.72</title>
			<v:userDefs>
				<v:ud v:nameU="Scale" v:val="VT0(1):26"/>
				<v:ud v:nameU="AntiScale" v:val="VT0(1):26"/>
				<v:ud v:nameU="visVersion" v:val="VT0(15):26"/>
			</v:userDefs>
			<path d="M0 258.54 L26.37 239.22 L51.6 224.2 L75.67 213.47 L98.6 207.03 L120.39 204.89 L141.02 207.03 L160.51 213.47
						 L178.85 224.2 L196.04 239.22 L212.09 258.54" class="st6"/>
		</g>
		<g id="shape76-148" v:mID="76" v:groupContext="shape" v:layerMember="0"
				transform="translate(270.592,-157.546) rotate(1.36115)">
			<title>Lien droit / courbé.76</title>
			<v:userDefs>
				<v:ud v:nameU="Scale" v:val="VT0(1):26"/>
				<v:ud v:nameU="AntiScale" v:val="VT0(1):26"/>
				<v:ud v:nameU="visVersion" v:val="VT0(15):26"/>
			</v:userDefs>
			<path d="M0 258.54 L33.74 275.27 L67.33 287.82 L100.77 296.19 L134.07 300.37 L167.22 300.37 L200.22 296.19 L233.07 287.82
						 L265.77 275.27 L298.33 258.54" class="st6"/>
		</g>
		<g id="shape77-151" v:mID="77" v:groupContext="shape" v:layerMember="0"
				transform="translate(305.403,-157.56) rotate(1.22317)">
			<title>Lien droit / courbé.77</title>
			<v:userDefs>
				<v:ud v:nameU="Scale" v:val="VT0(1):26"/>
				<v:ud v:nameU="AntiScale" v:val="VT0(1):26"/>
				<v:ud v:nameU="visVersion" v:val="VT0(15):26"/>
			</v:userDefs>
			<path d="M0 258.54 L48.22 273.14 L93.61 284.09 L136.17 291.39 L175.89 295.04 L212.77 295.04 L246.82 291.39 L278.04 284.09
						 L306.43 273.14 L331.98 258.54" class="st6"/>
		</g>
		<g id="shape78-154" v:mID="78" v:groupContext="shape" v:layerMember="0"
				transform="translate(555.279,323.88) rotate(-1.94632) scale(1,-1)">
			<title>Lien droit / courbé.78</title>
			<v:userDefs>
				<v:ud v:nameU="Scale" v:val="VT0(1):26"/>
				<v:ud v:nameU="AntiScale" v:val="VT0(1):26"/>
				<v:ud v:nameU="visVersion" v:val="VT0(15):26"/>
			</v:userDefs>
			<path d="M0 258.54 L31.84 269.31 L60.79 277.01 L86.86 281.62 L110.03 283.16 L130.33 281.62 L147.73 277.01 L162.25 269.31
						 L173.88 258.54" class="st6"/>
		</g>
		<g id="shape86-157" v:mID="86" v:groupContext="shape" transform="translate(132.994,487.021) rotate(180)">
			<title>Crochet.86</title>
			<v:userDefs>
				<v:ud v:nameU="visVersion" v:val="VT0(15):26"/>
			</v:userDefs>
			<path d="M0 258.54 A4.01075 4.01075 0 0 1 3.54 255 L41.54 255 A4.01075 4.01075 -180 0 0 45.08 251.45 A4.01075 4.01075
						 -180 0 0 48.62 255 L85.04 255 A4.01075 4.01075 0 0 1 88.58 258.54" class="st6"/>
		</g>
		<g id="shape87-160" v:mID="87" v:groupContext="shape" transform="translate(149.293,-65.4929)">
			<title>Crochet.87</title>
			<v:userDefs>
				<v:ud v:nameU="visVersion" v:val="VT0(15):26"/>
			</v:userDefs>
			<path d="M0 258.54 A4.01075 4.01075 0 0 1 3.54 255 L23.5 255 A4.01075 4.01075 -180 0 0 27.05 251.45 A4.01075 4.01075
						 -180 0 0 30.59 255 L49.61 255 A4.01075 4.01075 0 0 1 53.15 258.54" class="st6"/>
		</g>
		<g id="shape88-163" v:mID="88" v:groupContext="shape" transform="translate(220.159,-65.4929)">
			<title>Crochet.88</title>
			<v:userDefs>
				<v:ud v:nameU="visVersion" v:val="VT0(15):26"/>
			</v:userDefs>
			<path d="M0 258.54 A4.01075 4.01075 0 0 1 3.54 255 L23.5 255 A4.01075 4.01075 -180 0 0 27.05 251.45 A4.01075 4.01075
						 -180 0 0 30.59 255 L49.61 255 A4.01075 4.01075 0 0 1 53.15 258.54" class="st6"/>
		</g>
		<g id="shape89-166" v:mID="89" v:groupContext="shape" transform="translate(308.742,487.021) rotate(180)">
			<title>Crochet.89</title>
			<v:userDefs>
				<v:ud v:nameU="visVersion" v:val="VT0(15):26"/>
			</v:userDefs>
			<path d="M0 258.54 A1.67115 1.67115 0 0 1 1.48 257.06 L7.54 257.06 A1.67115 1.67115 -180 0 0 9.02 255.59 A1.67115 1.67115
						 -180 0 0 10.49 257.06 L16.24 257.06 A1.67115 1.67115 0 0 1 17.72 258.54" class="st6"/>
		</g>
		<g id="shape90-169" v:mID="90" v:groupContext="shape" v:layerMember="0"
				transform="translate(61.9013,492.796) rotate(-174.226)">
			<title>Lien droit / courbé.90</title>
			<v:userDefs>
				<v:ud v:nameU="Scale" v:val="VT0(1):26"/>
				<v:ud v:nameU="AntiScale" v:val="VT0(1):26"/>
				<v:ud v:nameU="visVersion" v:val="VT0(15):26"/>
			</v:userDefs>
			<path d="M0 258.54 L14.06 248.41 L27.19 242.34 L39.39 240.31 L50.66 242.34 L61.01 248.41 L70.43 258.54" class="st6"/>
		</g>
		<g id="shape91-172" v:mID="91" v:groupContext="shape" v:layerMember="0"
				transform="translate(68.132,451.16) rotate(-3.29552) scale(1,-1)">
			<title>Lien droit / courbé.91</title>
			<v:userDefs>
				<v:ud v:nameU="Scale" v:val="VT0(1):26"/>
				<v:ud v:nameU="AntiScale" v:val="VT0(1):26"/>
				<v:ud v:nameU="visVersion" v:val="VT0(15):26"/>
			</v:userDefs>
			<path d="M0 258.54 L21.63 267 L41.92 272.64 L60.88 275.46 L78.49 275.46 L94.76 272.64 L109.69 267 L123.28 258.54"
					class="st6"/>
		</g>
		<g id="shape92-175" v:mID="92" v:groupContext="shape" v:layerMember="0"
				transform="translate(100.25,451.33) rotate(-2.55994) scale(1,-1)">
			<title>Lien droit / courbé.92</title>
			<v:userDefs>
				<v:ud v:nameU="Scale" v:val="VT0(1):26"/>
				<v:ud v:nameU="AntiScale" v:val="VT0(1):26"/>
				<v:ud v:nameU="visVersion" v:val="VT0(15):26"/>
			</v:userDefs>
			<path d="M0 258.54 L27.84 267 L53.96 272.64 L78.35 275.46 L101.02 275.46 L121.96 272.64 L141.17 267 L158.66 258.54"
					class="st6"/>
		</g>
		<g id="shape93-178" v:mID="93" v:groupContext="shape" v:layerMember="0"
				transform="translate(154.367,-30.0101) rotate(1.12448)">
			<title>Lien droit / courbé.93</title>
			<v:userDefs>
				<v:ud v:nameU="Scale" v:val="VT0(1):26"/>
				<v:ud v:nameU="AntiScale" v:val="VT0(1):26"/>
				<v:ud v:nameU="visVersion" v:val="VT0(15):26"/>
			</v:userDefs>
			<path d="M0 258.54 L26.4 267 L51.17 272.64 L74.3 275.46 L95.8 275.46 L115.65 272.64 L133.88 267 L150.46 258.54"
					class="st6"/>
		</g>
		<g id="group105-181" transform="translate(71.6948,366.548) rotate(180)" v:mID="105" v:groupContext="group">
			<v:userDefs>
				<v:ud v:nameU="visVersion" v:val="VT0(15):26"/>
			</v:userDefs>
			<title>1-D simple</title>
			<g id="shape106-182" v:mID="106" v:groupContext="shape">
				<title>Feuille.106</title>
				<path d="M0 255 L65.8 255 L65.8 258.54 L69.34 251.45 L65.8 244.37 L65.8 247.91 L0 247.91 L0 255 Z" class="st7"/>
				<path d="M0 255 L65.8 255 L65.8 258.54 L69.34 251.45 L65.8 244.37 L65.8 247.91 L0 247.91" class="st8"/>
			</g>
			<g id="shape107-185" v:mID="107" v:groupContext="shape">
				<title>Feuille.107</title>
				<path d="M0 255 L65.8 255 L65.8 258.54 L69.34 251.45 L65.8 244.37 L65.8 247.91 L0 247.91 L0 255" class="st9"/>
			</g>
			<g id="shape108-188" v:mID="108" v:groupContext="shape" transform="translate(-0.889081,-3.60331)">
				<title>Feuille.108</title>
				<rect x="0" y="251.574" width="0.391381" height="6.96661" class="st10"/>
			</g>
		</g>
		<g id="group109-190" transform="translate(248.86,388.174) rotate(180)" v:mID="109" v:groupContext="group">
			<v:userDefs>
				<v:ud v:nameU="visVersion" v:val="VT0(15):26"/>
			</v:userDefs>
			<title>1-D simple.109</title>
			<g id="shape110-191" v:mID="110" v:groupContext="shape">
				<title>Feuille.110</title>
				<path d="M0 255.18 L207.71 255.18 L207.71 258.54 L211.07 251.82 L207.71 245.1 L207.71 248.46 L0 248.46 L0 255.18 Z"
						class="st7"/>
				<path d="M0 255.18 L207.71 255.18 L207.71 258.54 L211.07 251.82 L207.71 245.1 L207.71 248.46 L0 248.46" class="st8"/>
			</g>
			<g id="shape111-194" v:mID="111" v:groupContext="shape">
				<title>Feuille.111</title>
				<path d="M0 255.18 L207.71 255.18 L207.71 258.54 L211.07 251.82 L207.71 245.1 L207.71 248.46 L0 248.46 L0 255.18"
						class="st9"/>
			</g>
			<g id="shape112-197" v:mID="112" v:groupContext="shape" transform="translate(-2.7064,-3.41733)">
				<title>Feuille.112</title>
				<rect x="0" y="251.933" width="1.19138" height="6.60705" class="st10"/>
			</g>
		</g>
		<g id="group113-199" transform="translate(529.124,409.434) rotate(180)" v:mID="113" v:groupContext="group">
			<v:userDefs>
				<v:ud v:nameU="visVersion" v:val="VT0(15):26"/>
			</v:userDefs>
			<title>1-D simple.113</title>
			<g id="shape114-200" v:mID="114" v:groupContext="shape">
				<title>Feuille.114</title>
				<path d="M0 255.18 L388.76 255.18 L388.76 258.54 L392.12 251.82 L388.76 245.1 L388.76 248.46 L0 248.46 L0 255.18 Z"
						class="st7"/>
				<path d="M0 255.18 L388.76 255.18 L388.76 258.54 L392.12 251.82 L388.76 245.1 L388.76 248.46 L0 248.46" class="st8"/>
			</g>
			<g id="shape115-203" v:mID="115" v:groupContext="shape">
				<title>Feuille.115</title>
				<path d="M0 255.18 L388.76 255.18 L388.76 258.54 L392.12 251.82 L388.76 245.1 L388.76 248.46 L0 248.46 L0 255.18"
						class="st9"/>
			</g>
			<g id="shape116-206" v:mID="116" v:groupContext="shape" transform="translate(-5.02789,-3.41733)">
				<title>Feuille.116</title>
				<rect x="0" y="251.933" width="2.21332" height="6.60705" class="st10"/>
			</g>
		</g>
	</g>
</svg>
