<?xml version="1.0" encoding="UTF-8" standalone="no"?>
<!DOCTYPE svg PUBLIC "-//W3C//DTD SVG 1.1//EN" "http://www.w3.org/Graphics/SVG/1.1/DTD/svg11.dtd">
<!-- Généré par Microsoft Visio, SVG Export array.svg Page 1 -->
<svg xmlns="http://www.w3.org/2000/svg" xmlns:xlink="http://www.w3.org/1999/xlink" xmlns:ev="http://www.w3.org/2001/xml-events"
		xmlns:v="http://schemas.microsoft.com/visio/2003/SVGExtensions/" width="10.7415in" height="5.51181in"
		viewBox="0 0 773.39 396.85" xml:space="preserve" color-interpolation-filters="sRGB" class="st9">
	<v:documentProperties v:langID="1036" v:metric="true" v:viewMarkup="false"/>

	<style type="text/css">
	<![CDATA[
		.st1 {fill:#f2dcda;stroke:#000000;stroke-linecap:round;stroke-linejoin:round;stroke-width:0.24}
		.st2 {fill:#000000;font-family:Calibri;font-size:0.666664em}
		.st3 {fill:#f2f2f2;stroke:#000000;stroke-linecap:round;stroke-linejoin:round;stroke-width:0.24}
		.st4 {fill:#ebf1df;stroke:#000000;stroke-linecap:round;stroke-linejoin:round;stroke-width:0.24}
		.st5 {fill:#ffffff;stroke:#000000;stroke-linecap:round;stroke-linejoin:round;stroke-width:0.24}
		.st6 {stroke:#000000;stroke-linecap:round;stroke-linejoin:round;stroke-width:0.24}
		.st7 {stroke:#00b050;stroke-linecap:round;stroke-linejoin:round;stroke-width:1}
		.st8 {stroke:#000000;stroke-linecap:round;stroke-linejoin:round;stroke-width:0.239976}
		.st9 {fill:none;fill-rule:evenodd;font-size:12px;overflow:visible;stroke-linecap:square;stroke-miterlimit:3}
	]]>
	</style>

	<g v:mID="0" v:index="1" v:groupContext="foregroundPage">
		<title>Page 1</title>
		<v:pageProperties v:drawingScale="0.0393701" v:pageScale="0.0393701" v:drawingUnits="24" v:shadowOffsetX="8.50394"
				v:shadowOffsetY="-8.50394"/>
		<v:layer v:name="Lien" v:index="0"/>
		<g id="shape1-1" v:mID="1" v:groupContext="shape" transform="translate(0.12,-276.378)">
			<title>Fonction / sous-routine</title>
			<desc>Root</desc>
			<v:userDefs>
				<v:ud v:nameU="visVersion" v:val="VT0(15):26"/>
			</v:userDefs>
			<v:textBlock v:margins="rect(1,1,1,1)" v:tabSpace="42.5197"/>
			<v:textRect cx="17.7165" cy="379.134" width="35.44" height="35.4331"/>
			<rect x="0" y="361.417" width="35.4331" height="35.4331" class="st1"/>
			<text x="9.99" y="381.53" class="st2" v:langID="1041"><v:paragraph v:horizAlign="1"/><v:tabList/>Root</text>		</g>
		<g id="shape11-4" v:mID="11" v:groupContext="shape" transform="translate(35.5531,-276.378)">
			<title>Fonction / sous-routine.11</title>
			<desc>2</desc>
			<v:userDefs>
				<v:ud v:nameU="visVersion" v:val="VT0(15):26"/>
			</v:userDefs>
			<v:textBlock v:margins="rect(1,1,1,1)" v:tabSpace="42.5197"/>
			<v:textRect cx="17.7165" cy="379.134" width="35.44" height="35.4331"/>
			<rect x="0" y="361.417" width="35.4331" height="35.4331" class="st3"/>
			<text x="15.69" y="381.53" class="st2" v:langID="1041"><v:paragraph v:horizAlign="1"/><v:tabList/>2</text>		</g>
		<g id="shape12-7" v:mID="12" v:groupContext="shape" transform="translate(70.9861,-276.378)">
			<title>Fonction / sous-routine.12</title>
			<desc>3</desc>
			<v:userDefs>
				<v:ud v:nameU="visVersion" v:val="VT0(15):26"/>
			</v:userDefs>
			<v:textBlock v:margins="rect(1,1,1,1)" v:tabSpace="42.5197"/>
			<v:textRect cx="17.7165" cy="379.134" width="35.44" height="35.4331"/>
			<rect x="0" y="361.417" width="35.4331" height="35.4331" class="st4"/>
			<text x="15.69" y="381.53" class="st2" v:langID="1041"><v:paragraph v:horizAlign="1"/><v:tabList/>3</text>		</g>
		<g id="shape13-10" v:mID="13" v:groupContext="shape" transform="translate(106.419,-276.378)">
			<title>Fonction / sous-routine.13</title>
			<desc>4</desc>
			<v:userDefs>
				<v:ud v:nameU="visVersion" v:val="VT0(15):26"/>
			</v:userDefs>
			<v:textBlock v:margins="rect(1,1,1,1)" v:tabSpace="42.5197"/>
			<v:textRect cx="17.7165" cy="379.134" width="35.44" height="35.4331"/>
			<rect x="0" y="361.417" width="35.4331" height="35.4331" class="st3"/>
			<text x="15.69" y="381.53" class="st2" v:langID="1041"><v:paragraph v:horizAlign="1"/><v:tabList/>4</text>		</g>
		<g id="shape14-13" v:mID="14" v:groupContext="shape" transform="translate(140.435,-276.378)">
			<title>Fonction / sous-routine.14</title>
			<desc>5</desc>
			<v:userDefs>
				<v:ud v:nameU="visVersion" v:val="VT0(15):26"/>
			</v:userDefs>
			<v:textBlock v:margins="rect(1,1,1,1)" v:tabSpace="42.5197"/>
			<v:textRect cx="17.7165" cy="379.134" width="35.44" height="35.4331"/>
			<rect x="0" y="361.417" width="35.4331" height="35.4331" class="st3"/>
			<text x="15.69" y="381.53" class="st2" v:langID="1041"><v:paragraph v:horizAlign="1"/><v:tabList/>5</text>		</g>
		<g id="shape15-16" v:mID="15" v:groupContext="shape" transform="translate(175.868,-276.378)">
			<title>Fonction / sous-routine.15</title>
			<desc>6</desc>
			<v:userDefs>
				<v:ud v:nameU="visVersion" v:val="VT0(15):26"/>
			</v:userDefs>
			<v:textBlock v:margins="rect(1,1,1,1)" v:tabSpace="42.5197"/>
			<v:textRect cx="17.7165" cy="379.134" width="35.44" height="35.4331"/>
			<rect x="0" y="361.417" width="35.4331" height="35.4331" class="st3"/>
			<text x="15.69" y="381.53" class="st2" v:langID="1041"><v:paragraph v:horizAlign="1"/><v:tabList/>6</text>		</g>
		<g id="shape16-19" v:mID="16" v:groupContext="shape" transform="translate(211.301,-276.378)">
			<title>Fonction / sous-routine.16</title>
			<desc>7</desc>
			<v:userDefs>
				<v:ud v:nameU="visVersion" v:val="VT0(15):26"/>
			</v:userDefs>
			<v:textBlock v:margins="rect(1,1,1,1)" v:tabSpace="42.5197"/>
			<v:textRect cx="17.7165" cy="379.134" width="35.44" height="35.4331"/>
			<rect x="0" y="361.417" width="35.4331" height="35.4331" class="st3"/>
			<text x="15.69" y="381.53" class="st2" v:langID="1041"><v:paragraph v:horizAlign="1"/><v:tabList/>7</text>		</g>
		<g id="shape17-22" v:mID="17" v:groupContext="shape" transform="translate(246.734,-276.378)">
			<title>Fonction / sous-routine.17</title>
			<desc>8</desc>
			<v:userDefs>
				<v:ud v:nameU="visVersion" v:val="VT0(15):26"/>
			</v:userDefs>
			<v:textBlock v:margins="rect(1,1,1,1)" v:tabSpace="42.5197"/>
			<v:textRect cx="17.7165" cy="379.134" width="35.44" height="35.4331"/>
			<rect x="0" y="361.417" width="35.4331" height="35.4331" class="st4"/>
			<text x="15.69" y="381.53" class="st2" v:langID="1041"><v:paragraph v:horizAlign="1"/><v:tabList/>8</text>		</g>
		<g id="shape18-25" v:mID="18" v:groupContext="shape" transform="translate(282.167,-276.378)">
			<title>Fonction / sous-routine.18</title>
			<desc>9</desc>
			<v:userDefs>
				<v:ud v:nameU="visVersion" v:val="VT0(15):26"/>
			</v:userDefs>
			<v:textBlock v:margins="rect(1,1,1,1)" v:tabSpace="42.5197"/>
			<v:textRect cx="17.7165" cy="379.134" width="35.44" height="35.4331"/>
			<rect x="0" y="361.417" width="35.4331" height="35.4331" class="st4"/>
			<text x="15.69" y="381.53" class="st2" v:langID="1041"><v:paragraph v:horizAlign="1"/><v:tabList/>9</text>		</g>
		<g id="shape19-28" v:mID="19" v:groupContext="shape" transform="translate(317.6,-276.378)">
			<title>Fonction / sous-routine.19</title>
			<desc>10</desc>
			<v:userDefs>
				<v:ud v:nameU="visVersion" v:val="VT0(15):26"/>
			</v:userDefs>
			<v:textBlock v:margins="rect(1,1,1,1)" v:tabSpace="42.5197"/>
			<v:textRect cx="17.7165" cy="379.134" width="35.44" height="35.4331"/>
			<rect x="0" y="361.417" width="35.4331" height="35.4331" class="st4"/>
			<text x="13.66" y="381.53" class="st2" v:langID="1041"><v:paragraph v:horizAlign="1"/><v:tabList/>10</text>		</g>
		<g id="shape20-31" v:mID="20" v:groupContext="shape" transform="translate(353.033,-276.378)">
			<title>Fonction / sous-routine.20</title>
			<desc>11</desc>
			<v:userDefs>
				<v:ud v:nameU="visVersion" v:val="VT0(15):26"/>
			</v:userDefs>
			<v:textBlock v:margins="rect(1,1,1,1)" v:tabSpace="42.5197"/>
			<v:textRect cx="17.7165" cy="379.134" width="35.44" height="35.4331"/>
			<rect x="0" y="361.417" width="35.4331" height="35.4331" class="st3"/>
			<text x="13.66" y="381.53" class="st2" v:langID="1041"><v:paragraph v:horizAlign="1"/><v:tabList/>11</text>		</g>
		<g id="shape21-34" v:mID="21" v:groupContext="shape" transform="translate(388.466,-276.378)">
			<title>Fonction / sous-routine.21</title>
			<desc>12</desc>
			<v:userDefs>
				<v:ud v:nameU="visVersion" v:val="VT0(15):26"/>
			</v:userDefs>
			<v:textBlock v:margins="rect(1,1,1,1)" v:tabSpace="42.5197"/>
			<v:textRect cx="17.7165" cy="379.134" width="35.44" height="35.4331"/>
			<rect x="0" y="361.417" width="35.4331" height="35.4331" class="st3"/>
			<text x="13.66" y="381.53" class="st2" v:langID="1041"><v:paragraph v:horizAlign="1"/><v:tabList/>12</text>		</g>
		<g id="shape22-37" v:mID="22" v:groupContext="shape" transform="translate(422.482,-276.378)">
			<title>Fonction / sous-routine.22</title>
			<desc>13</desc>
			<v:userDefs>
				<v:ud v:nameU="visVersion" v:val="VT0(15):26"/>
			</v:userDefs>
			<v:textBlock v:margins="rect(1,1,1,1)" v:tabSpace="42.5197"/>
			<v:textRect cx="17.7165" cy="379.134" width="35.44" height="35.4331"/>
			<rect x="0" y="361.417" width="35.4331" height="35.4331" class="st3"/>
			<text x="13.66" y="381.53" class="st2" v:langID="1041"><v:paragraph v:horizAlign="1"/><v:tabList/>13</text>		</g>
		<g id="shape23-40" v:mID="23" v:groupContext="shape" transform="translate(457.915,-276.378)">
			<title>Fonction / sous-routine.23</title>
			<desc>14</desc>
			<v:userDefs>
				<v:ud v:nameU="visVersion" v:val="VT0(15):26"/>
			</v:userDefs>
			<v:textBlock v:margins="rect(1,1,1,1)" v:tabSpace="42.5197"/>
			<v:textRect cx="17.7165" cy="379.134" width="35.44" height="35.4331"/>
			<rect x="0" y="361.417" width="35.4331" height="35.4331" class="st3"/>
			<text x="13.66" y="381.53" class="st2" v:langID="1041"><v:paragraph v:horizAlign="1"/><v:tabList/>14</text>		</g>
		<g id="shape24-43" v:mID="24" v:groupContext="shape" transform="translate(493.348,-276.378)">
			<title>Fonction / sous-routine.24</title>
			<desc>15</desc>
			<v:userDefs>
				<v:ud v:nameU="visVersion" v:val="VT0(15):26"/>
			</v:userDefs>
			<v:textBlock v:margins="rect(1,1,1,1)" v:tabSpace="42.5197"/>
			<v:textRect cx="17.7165" cy="379.134" width="35.44" height="35.4331"/>
			<rect x="0" y="361.417" width="35.4331" height="35.4331" class="st3"/>
			<text x="13.66" y="381.53" class="st2" v:langID="1041"><v:paragraph v:horizAlign="1"/><v:tabList/>15</text>		</g>
		<g id="shape25-46" v:mID="25" v:groupContext="shape" transform="translate(528.781,-276.378)">
			<title>Fonction / sous-routine.25</title>
			<desc>16</desc>
			<v:userDefs>
				<v:ud v:nameU="visVersion" v:val="VT0(15):26"/>
			</v:userDefs>
			<v:textBlock v:margins="rect(1,1,1,1)" v:tabSpace="42.5197"/>
			<v:textRect cx="17.7165" cy="379.134" width="35.44" height="35.4331"/>
			<rect x="0" y="361.417" width="35.4331" height="35.4331" class="st4"/>
			<text x="13.66" y="381.53" class="st2" v:langID="1041"><v:paragraph v:horizAlign="1"/><v:tabList/>16</text>		</g>
		<g id="shape32-49" v:mID="32" v:groupContext="shape" transform="translate(562.089,-276.378)">
			<title>Fonction / sous-routine.32</title>
			<desc>17</desc>
			<v:userDefs>
				<v:ud v:nameU="visVersion" v:val="VT0(15):26"/>
			</v:userDefs>
			<v:textBlock v:margins="rect(1,1,1,1)" v:tabSpace="42.5197"/>
			<v:textRect cx="17.7165" cy="379.134" width="35.44" height="35.4331"/>
			<rect x="0" y="361.417" width="35.4331" height="35.4331" class="st4"/>
			<text x="13.66" y="381.53" class="st2" v:langID="1041"><v:paragraph v:horizAlign="1"/><v:tabList/>17</text>		</g>
		<g id="shape33-52" v:mID="33" v:groupContext="shape" transform="translate(597.522,-276.378)">
			<title>Fonction / sous-routine.33</title>
			<desc>18</desc>
			<v:userDefs>
				<v:ud v:nameU="visVersion" v:val="VT0(15):26"/>
			</v:userDefs>
			<v:textBlock v:margins="rect(1,1,1,1)" v:tabSpace="42.5197"/>
			<v:textRect cx="17.7165" cy="379.134" width="35.44" height="35.4331"/>
			<rect x="0" y="361.417" width="35.4331" height="35.4331" class="st4"/>
			<text x="13.66" y="381.53" class="st2" v:langID="1041"><v:paragraph v:horizAlign="1"/><v:tabList/>18</text>		</g>
		<g id="shape34-55" v:mID="34" v:groupContext="shape" transform="translate(631.537,-276.378)">
			<title>Fonction / sous-routine.34</title>
			<desc>19</desc>
			<v:userDefs>
				<v:ud v:nameU="visVersion" v:val="VT0(15):26"/>
			</v:userDefs>
			<v:textBlock v:margins="rect(1,1,1,1)" v:tabSpace="42.5197"/>
			<v:textRect cx="17.7165" cy="379.134" width="35.44" height="35.4331"/>
			<rect x="0" y="361.417" width="35.4331" height="35.4331" class="st4"/>
			<text x="13.66" y="381.53" class="st2" v:langID="1041"><v:paragraph v:horizAlign="1"/><v:tabList/>19</text>		</g>
		<g id="shape35-58" v:mID="35" v:groupContext="shape" transform="translate(666.97,-276.378)">
			<title>Fonction / sous-routine.35</title>
			<desc>20</desc>
			<v:userDefs>
				<v:ud v:nameU="visVersion" v:val="VT0(15):26"/>
			</v:userDefs>
			<v:textBlock v:margins="rect(1,1,1,1)" v:tabSpace="42.5197"/>
			<v:textRect cx="17.7165" cy="379.134" width="35.44" height="35.4331"/>
			<rect x="0" y="361.417" width="35.4331" height="35.4331" class="st3"/>
			<text x="13.66" y="381.53" class="st2" v:langID="1041"><v:paragraph v:horizAlign="1"/><v:tabList/>20</text>		</g>
		<g id="shape36-61" v:mID="36" v:groupContext="shape" transform="translate(702.403,-276.378)">
			<title>Fonction / sous-routine.36</title>
			<desc>21</desc>
			<v:userDefs>
				<v:ud v:nameU="visVersion" v:val="VT0(15):26"/>
			</v:userDefs>
			<v:textBlock v:margins="rect(1,1,1,1)" v:tabSpace="42.5197"/>
			<v:textRect cx="17.7165" cy="379.134" width="35.44" height="35.4331"/>
			<rect x="0" y="361.417" width="35.4331" height="35.4331" class="st4"/>
			<text x="13.66" y="381.53" class="st2" v:langID="1041"><v:paragraph v:horizAlign="1"/><v:tabList/>21</text>		</g>
		<g id="shape37-64" v:mID="37" v:groupContext="shape" transform="translate(737.837,-276.378)">
			<title>Fonction / sous-routine.37</title>
			<desc>...</desc>
			<v:userDefs>
				<v:ud v:nameU="visVersion" v:val="VT0(15):26"/>
			</v:userDefs>
			<v:textBlock v:margins="rect(1,1,1,1)" v:tabSpace="42.5197"/>
			<v:textRect cx="17.7165" cy="379.134" width="35.44" height="35.4331"/>
			<rect x="0" y="361.417" width="35.4331" height="35.4331" class="st5"/>
			<text x="14.69" y="381.53" class="st2" v:langID="1041"><v:paragraph v:horizAlign="1"/><v:tabList/>...</text>		</g>
		<g id="shape38-67" v:mID="38" v:groupContext="shape" transform="translate(0.12,-77.9528)">
			<title>Fonction / sous-routine.38</title>
			<desc>3</desc>
			<v:userDefs>
				<v:ud v:nameU="visVersion" v:val="VT0(15):26"/>
			</v:userDefs>
			<v:textBlock v:margins="rect(1,1,1,1)" v:tabSpace="42.5197"/>
			<v:textRect cx="17.7165" cy="379.134" width="35.44" height="35.4331"/>
			<rect x="0" y="361.417" width="35.4331" height="35.4331" class="st4"/>
			<text x="15.69" y="381.53" class="st2" v:langID="1041"><v:paragraph v:horizAlign="1"/><v:tabList/>3</text>		</g>
		<g id="shape39-70" v:mID="39" v:groupContext="shape" transform="translate(35.5531,-77.9528)">
			<title>Fonction / sous-routine.39</title>
			<desc>8</desc>
			<v:userDefs>
				<v:ud v:nameU="visVersion" v:val="VT0(15):26"/>
			</v:userDefs>
			<v:textBlock v:margins="rect(1,1,1,1)" v:tabSpace="42.5197"/>
			<v:textRect cx="17.7165" cy="379.134" width="35.44" height="35.4331"/>
			<rect x="0" y="361.417" width="35.4331" height="35.4331" class="st4"/>
			<text x="15.69" y="381.53" class="st2" v:langID="1041"><v:paragraph v:horizAlign="1"/><v:tabList/>8</text>		</g>
		<g id="shape40-73" v:mID="40" v:groupContext="shape" transform="translate(70.9861,-77.9528)">
			<title>Fonction / sous-routine.40</title>
			<desc>9</desc>
			<v:userDefs>
				<v:ud v:nameU="visVersion" v:val="VT0(15):26"/>
			</v:userDefs>
			<v:textBlock v:margins="rect(1,1,1,1)" v:tabSpace="42.5197"/>
			<v:textRect cx="17.7165" cy="379.134" width="35.44" height="35.4331"/>
			<rect x="0" y="361.417" width="35.4331" height="35.4331" class="st4"/>
			<text x="15.69" y="381.53" class="st2" v:langID="1041"><v:paragraph v:horizAlign="1"/><v:tabList/>9</text>		</g>
		<g id="shape41-76" v:mID="41" v:groupContext="shape" transform="translate(106.419,-77.9528)">
			<title>Fonction / sous-routine.41</title>
			<desc>10</desc>
			<v:userDefs>
				<v:ud v:nameU="visVersion" v:val="VT0(15):26"/>
			</v:userDefs>
			<v:textBlock v:margins="rect(1,1,1,1)" v:tabSpace="42.5197"/>
			<v:textRect cx="17.7165" cy="379.134" width="35.44" height="35.4331"/>
			<rect x="0" y="361.417" width="35.4331" height="35.4331" class="st4"/>
			<text x="13.66" y="381.53" class="st2" v:langID="1041"><v:paragraph v:horizAlign="1"/><v:tabList/>10</text>		</g>
		<g id="shape42-79" v:mID="42" v:groupContext="shape" transform="translate(140.435,-77.9528)">
			<title>Fonction / sous-routine.42</title>
			<desc>16</desc>
			<v:userDefs>
				<v:ud v:nameU="visVersion" v:val="VT0(15):26"/>
			</v:userDefs>
			<v:textBlock v:margins="rect(1,1,1,1)" v:tabSpace="42.5197"/>
			<v:textRect cx="17.7165" cy="379.134" width="35.44" height="35.4331"/>
			<rect x="0" y="361.417" width="35.4331" height="35.4331" class="st4"/>
			<text x="13.66" y="381.53" class="st2" v:langID="1041"><v:paragraph v:horizAlign="1"/><v:tabList/>16</text>		</g>
		<g id="shape43-82" v:mID="43" v:groupContext="shape" transform="translate(175.868,-77.9528)">
			<title>Fonction / sous-routine.43</title>
			<desc>17</desc>
			<v:userDefs>
				<v:ud v:nameU="visVersion" v:val="VT0(15):26"/>
			</v:userDefs>
			<v:textBlock v:margins="rect(1,1,1,1)" v:tabSpace="42.5197"/>
			<v:textRect cx="17.7165" cy="379.134" width="35.44" height="35.4331"/>
			<rect x="0" y="361.417" width="35.4331" height="35.4331" class="st4"/>
			<text x="13.66" y="381.53" class="st2" v:langID="1041"><v:paragraph v:horizAlign="1"/><v:tabList/>17</text>		</g>
		<g id="shape44-85" v:mID="44" v:groupContext="shape" transform="translate(211.301,-77.9528)">
			<title>Fonction / sous-routine.44</title>
			<desc>18</desc>
			<v:userDefs>
				<v:ud v:nameU="visVersion" v:val="VT0(15):26"/>
			</v:userDefs>
			<v:textBlock v:margins="rect(1,1,1,1)" v:tabSpace="42.5197"/>
			<v:textRect cx="17.7165" cy="379.134" width="35.44" height="35.4331"/>
			<rect x="0" y="361.417" width="35.4331" height="35.4331" class="st4"/>
			<text x="13.66" y="381.53" class="st2" v:langID="1041"><v:paragraph v:horizAlign="1"/><v:tabList/>18</text>		</g>
		<g id="shape45-88" v:mID="45" v:groupContext="shape" transform="translate(246.734,-77.9528)">
			<title>Fonction / sous-routine.45</title>
			<desc>19</desc>
			<v:userDefs>
				<v:ud v:nameU="visVersion" v:val="VT0(15):26"/>
			</v:userDefs>
			<v:textBlock v:margins="rect(1,1,1,1)" v:tabSpace="42.5197"/>
			<v:textRect cx="17.7165" cy="379.134" width="35.44" height="35.4331"/>
			<rect x="0" y="361.417" width="35.4331" height="35.4331" class="st4"/>
			<text x="13.66" y="381.53" class="st2" v:langID="1041"><v:paragraph v:horizAlign="1"/><v:tabList/>19</text>		</g>
		<g id="shape46-91" v:mID="46" v:groupContext="shape" transform="translate(282.167,-77.9528)">
			<title>Fonction / sous-routine.46</title>
			<desc>21</desc>
			<v:userDefs>
				<v:ud v:nameU="visVersion" v:val="VT0(15):26"/>
			</v:userDefs>
			<v:textBlock v:margins="rect(1,1,1,1)" v:tabSpace="42.5197"/>
			<v:textRect cx="17.7165" cy="379.134" width="35.44" height="35.4331"/>
			<rect x="0" y="361.417" width="35.4331" height="35.4331" class="st4"/>
			<text x="13.66" y="381.53" class="st2" v:langID="1041"><v:paragraph v:horizAlign="1"/><v:tabList/>21</text>		</g>
		<g id="shape47-94" v:mID="47" v:groupContext="shape" transform="translate(317.6,-77.9528)">
			<title>Fonction / sous-routine.47</title>
			<desc>...</desc>
			<v:userDefs>
				<v:ud v:nameU="visVersion" v:val="VT0(15):26"/>
			</v:userDefs>
			<v:textBlock v:margins="rect(1,1,1,1)" v:tabSpace="42.5197"/>
			<v:textRect cx="17.7165" cy="379.134" width="35.44" height="35.4331"/>
			<rect x="0" y="361.417" width="35.4331" height="35.4331" class="st5"/>
			<text x="14.69" y="381.53" class="st2" v:langID="1041"><v:paragraph v:horizAlign="1"/><v:tabList/>...</text>		</g>
		<g id="shape48-97" v:mID="48" v:groupContext="shape" transform="translate(353.033,-77.9528)">
			<title>Fonction / sous-routine.48</title>
			<desc>...</desc>
			<v:userDefs>
				<v:ud v:nameU="visVersion" v:val="VT0(15):26"/>
			</v:userDefs>
			<v:textBlock v:margins="rect(1,1,1,1)" v:tabSpace="42.5197"/>
			<v:textRect cx="17.7165" cy="379.134" width="35.44" height="35.4331"/>
			<rect x="0" y="361.417" width="35.4331" height="35.4331" class="st5"/>
			<text x="14.69" y="381.53" class="st2" v:langID="1041"><v:paragraph v:horizAlign="1"/><v:tabList/>...</text>		</g>
		<g id="shape49-100" v:mID="49" v:groupContext="shape" transform="translate(388.466,-77.9528)">
			<title>Fonction / sous-routine.49</title>
			<desc>...</desc>
			<v:userDefs>
				<v:ud v:nameU="visVersion" v:val="VT0(15):26"/>
			</v:userDefs>
			<v:textBlock v:margins="rect(1,1,1,1)" v:tabSpace="42.5197"/>
			<v:textRect cx="17.7165" cy="379.134" width="35.44" height="35.4331"/>
			<rect x="0" y="361.417" width="35.4331" height="35.4331" class="st5"/>
			<text x="14.69" y="381.53" class="st2" v:langID="1041"><v:paragraph v:horizAlign="1"/><v:tabList/>...</text>		</g>
		<g id="shape50-103" v:mID="50" v:groupContext="shape" transform="translate(422.482,-77.9528)">
			<title>Fonction / sous-routine.50</title>
			<desc>...</desc>
			<v:userDefs>
				<v:ud v:nameU="visVersion" v:val="VT0(15):26"/>
			</v:userDefs>
			<v:textBlock v:margins="rect(1,1,1,1)" v:tabSpace="42.5197"/>
			<v:textRect cx="17.7165" cy="379.134" width="35.44" height="35.4331"/>
			<rect x="0" y="361.417" width="35.4331" height="35.4331" class="st5"/>
			<text x="14.69" y="381.53" class="st2" v:langID="1041"><v:paragraph v:horizAlign="1"/><v:tabList/>...</text>		</g>
		<g id="shape51-106" v:mID="51" v:groupContext="shape" transform="translate(457.915,-77.9528)">
			<title>Fonction / sous-routine.51</title>
			<desc>...</desc>
			<v:userDefs>
				<v:ud v:nameU="visVersion" v:val="VT0(15):26"/>
			</v:userDefs>
			<v:textBlock v:margins="rect(1,1,1,1)" v:tabSpace="42.5197"/>
			<v:textRect cx="17.7165" cy="379.134" width="35.44" height="35.4331"/>
			<rect x="0" y="361.417" width="35.4331" height="35.4331" class="st5"/>
			<text x="14.69" y="381.53" class="st2" v:langID="1041"><v:paragraph v:horizAlign="1"/><v:tabList/>...</text>		</g>
		<g id="shape52-109" v:mID="52" v:groupContext="shape" transform="translate(493.348,-77.9528)">
			<title>Fonction / sous-routine.52</title>
			<desc>...</desc>
			<v:userDefs>
				<v:ud v:nameU="visVersion" v:val="VT0(15):26"/>
			</v:userDefs>
			<v:textBlock v:margins="rect(1,1,1,1)" v:tabSpace="42.5197"/>
			<v:textRect cx="17.7165" cy="379.134" width="35.44" height="35.4331"/>
			<rect x="0" y="361.417" width="35.4331" height="35.4331" class="st5"/>
			<text x="14.69" y="381.53" class="st2" v:langID="1041"><v:paragraph v:horizAlign="1"/><v:tabList/>...</text>		</g>
		<g id="shape53-112" v:mID="53" v:groupContext="shape" transform="translate(528.781,-77.9528)">
			<title>Fonction / sous-routine.53</title>
			<desc>...</desc>
			<v:userDefs>
				<v:ud v:nameU="visVersion" v:val="VT0(15):26"/>
			</v:userDefs>
			<v:textBlock v:margins="rect(1,1,1,1)" v:tabSpace="42.5197"/>
			<v:textRect cx="17.7165" cy="379.134" width="35.44" height="35.4331"/>
			<rect x="0" y="361.417" width="35.4331" height="35.4331" class="st5"/>
			<text x="14.69" y="381.53" class="st2" v:langID="1041"><v:paragraph v:horizAlign="1"/><v:tabList/>...</text>		</g>
		<g id="shape54-115" v:mID="54" v:groupContext="shape" transform="translate(562.089,-77.9528)">
			<title>Fonction / sous-routine.54</title>
			<desc>...</desc>
			<v:userDefs>
				<v:ud v:nameU="visVersion" v:val="VT0(15):26"/>
			</v:userDefs>
			<v:textBlock v:margins="rect(1,1,1,1)" v:tabSpace="42.5197"/>
			<v:textRect cx="17.7165" cy="379.134" width="35.44" height="35.4331"/>
			<rect x="0" y="361.417" width="35.4331" height="35.4331" class="st5"/>
			<text x="14.69" y="381.53" class="st2" v:langID="1041"><v:paragraph v:horizAlign="1"/><v:tabList/>...</text>		</g>
		<g id="shape55-118" v:mID="55" v:groupContext="shape" transform="translate(597.522,-77.9528)">
			<title>Fonction / sous-routine.55</title>
			<desc>...</desc>
			<v:userDefs>
				<v:ud v:nameU="visVersion" v:val="VT0(15):26"/>
			</v:userDefs>
			<v:textBlock v:margins="rect(1,1,1,1)" v:tabSpace="42.5197"/>
			<v:textRect cx="17.7165" cy="379.134" width="35.44" height="35.4331"/>
			<rect x="0" y="361.417" width="35.4331" height="35.4331" class="st5"/>
			<text x="14.69" y="381.53" class="st2" v:langID="1041"><v:paragraph v:horizAlign="1"/><v:tabList/>...</text>		</g>
		<g id="shape56-121" v:mID="56" v:groupContext="shape" transform="translate(631.537,-77.9528)">
			<title>Fonction / sous-routine.56</title>
			<desc>...</desc>
			<v:userDefs>
				<v:ud v:nameU="visVersion" v:val="VT0(15):26"/>
			</v:userDefs>
			<v:textBlock v:margins="rect(1,1,1,1)" v:tabSpace="42.5197"/>
			<v:textRect cx="17.7165" cy="379.134" width="35.44" height="35.4331"/>
			<rect x="0" y="361.417" width="35.4331" height="35.4331" class="st5"/>
			<text x="14.69" y="381.53" class="st2" v:langID="1041"><v:paragraph v:horizAlign="1"/><v:tabList/>...</text>		</g>
		<g id="shape57-124" v:mID="57" v:groupContext="shape" transform="translate(666.97,-77.9528)">
			<title>Fonction / sous-routine.57</title>
			<desc>...</desc>
			<v:userDefs>
				<v:ud v:nameU="visVersion" v:val="VT0(15):26"/>
			</v:userDefs>
			<v:textBlock v:margins="rect(1,1,1,1)" v:tabSpace="42.5197"/>
			<v:textRect cx="17.7165" cy="379.134" width="35.44" height="35.4331"/>
			<rect x="0" y="361.417" width="35.4331" height="35.4331" class="st5"/>
			<text x="14.69" y="381.53" class="st2" v:langID="1041"><v:paragraph v:horizAlign="1"/><v:tabList/>...</text>		</g>
		<g id="shape58-127" v:mID="58" v:groupContext="shape" transform="translate(702.403,-77.9528)">
			<title>Fonction / sous-routine.58</title>
			<desc>...</desc>
			<v:userDefs>
				<v:ud v:nameU="visVersion" v:val="VT0(15):26"/>
			</v:userDefs>
			<v:textBlock v:margins="rect(1,1,1,1)" v:tabSpace="42.5197"/>
			<v:textRect cx="17.7165" cy="379.134" width="35.44" height="35.4331"/>
			<rect x="0" y="361.417" width="35.4331" height="35.4331" class="st5"/>
			<text x="14.69" y="381.53" class="st2" v:langID="1041"><v:paragraph v:horizAlign="1"/><v:tabList/>...</text>		</g>
		<g id="shape59-130" v:mID="59" v:groupContext="shape" transform="translate(737.837,-77.9528)">
			<title>Fonction / sous-routine.59</title>
			<desc>...</desc>
			<v:userDefs>
				<v:ud v:nameU="visVersion" v:val="VT0(15):26"/>
			</v:userDefs>
			<v:textBlock v:margins="rect(1,1,1,1)" v:tabSpace="42.5197"/>
			<v:textRect cx="17.7165" cy="379.134" width="35.44" height="35.4331"/>
			<rect x="0" y="361.417" width="35.4331" height="35.4331" class="st5"/>
			<text x="14.69" y="381.53" class="st2" v:langID="1041"><v:paragraph v:horizAlign="1"/><v:tabList/>...</text>		</g>
		<g id="shape60-133" v:mID="60" v:groupContext="shape" transform="translate(132.994,517.323) rotate(180)">
			<title>Crochet</title>
			<v:userDefs>
				<v:ud v:nameU="visVersion" v:val="VT0(15):26"/>
			</v:userDefs>
			<path d="M0 396.85 A4.01075 4.01075 0 0 1 3.54 393.31 L41.54 393.31 A4.01075 4.01075 -180 0 0 45.08 389.76 A4.01075 4.01075
						 -180 0 0 48.62 393.31 L85.04 393.31 A4.01075 4.01075 0 0 1 88.58 396.85" class="st6"/>
		</g>
		<g id="shape63-136" v:mID="63" v:groupContext="shape" transform="translate(149.293,-311.811)">
			<title>Crochet.63</title>
			<v:userDefs>
				<v:ud v:nameU="visVersion" v:val="VT0(15):26"/>
			</v:userDefs>
			<path d="M0 396.85 A8.0215 8.0215 0 0 1 7.09 389.76 L37.99 389.76 A8.0215 8.0215 -180 0 0 45.08 382.68 A8.0215 8.0215
						 -180 0 0 52.17 389.76 L81.5 389.76 A8.0215 8.0215 0 0 1 88.58 396.85" class="st6"/>
		</g>
		<g id="shape64-139" v:mID="64" v:groupContext="shape" transform="translate(255.592,-311.811)">
			<title>Crochet.64</title>
			<v:userDefs>
				<v:ud v:nameU="visVersion" v:val="VT0(15):26"/>
			</v:userDefs>
			<path d="M0 396.85 A4.01075 4.01075 0 0 1 3.54 393.31 L41.54 393.31 A4.01075 4.01075 -180 0 0 45.08 389.76 A4.01075 4.01075
						 -180 0 0 48.62 393.31 L85.04 393.31 A4.01075 4.01075 0 0 1 88.58 396.85" class="st7"/>
		</g>
		<g id="shape65-142" v:mID="65" v:groupContext="shape" transform="translate(361.892,-311.811)">
			<title>Crochet.65</title>
			<v:userDefs>
				<v:ud v:nameU="visVersion" v:val="VT0(15):26"/>
			</v:userDefs>
			<path d="M0 396.85 A3.34229 3.34229 0 0 1 2.95 393.9 L41.41 393.9 A3.34229 3.34229 -180 0 0 44.36 390.94 A3.34229 3.34229
						 -180 0 0 47.31 393.9 L84.21 393.9 A3.34229 3.34229 0 0 1 87.17 396.85" class="st6"/>
		</g>
		<g id="shape66-145" v:mID="66" v:groupContext="shape" transform="translate(519.923,517.323) rotate(180)">
			<title>Crochet.66</title>
			<v:userDefs>
				<v:ud v:nameU="visVersion" v:val="VT0(15):26"/>
			</v:userDefs>
			<path d="M0 396.85 A4.01075 4.01075 0 0 1 3.54 393.31 L23.5 393.31 A4.01075 4.01075 -180 0 0 27.05 389.76 A4.01075 4.01075
						 -180 0 0 30.59 393.31 L49.61 393.31 A4.01075 4.01075 0 0 1 53.15 396.85" class="st6"/>
		</g>
		<g id="shape67-148" v:mID="67" v:groupContext="shape" transform="translate(588.663,517.323) rotate(180)">
			<title>Crochet.67</title>
			<v:userDefs>
				<v:ud v:nameU="visVersion" v:val="VT0(15):26"/>
			</v:userDefs>
			<path d="M0 396.85 A4.01075 4.01075 0 0 1 3.54 393.31 L22.42 393.31 A4.01075 4.01075 -180 0 0 25.97 389.76 A4.01075 4.01075
						 -180 0 0 29.51 393.31 L47.48 393.31 A4.01075 4.01075 0 0 1 51.02 396.85" class="st7"/>
		</g>
		<g id="shape68-151" v:mID="68" v:groupContext="shape" transform="translate(658.112,517.323) rotate(180)">
			<title>Crochet.68</title>
			<v:userDefs>
				<v:ud v:nameU="visVersion" v:val="VT0(15):26"/>
			</v:userDefs>
			<path d="M0 396.85 A4.01075 4.01075 0 0 1 3.54 393.31 L22.78 393.31 A4.01075 4.01075 -180 0 0 26.33 389.76 A4.01075 4.01075
						 -180 0 0 29.87 393.31 L48.19 393.31 A4.01075 4.01075 0 0 1 51.73 396.85" class="st7"/>
		</g>
		<g id="shape69-154" v:mID="69" v:groupContext="shape" transform="translate(711.262,-311.811)">
			<title>Crochet.69</title>
			<v:userDefs>
				<v:ud v:nameU="visVersion" v:val="VT0(15):26"/>
			</v:userDefs>
			<path d="M-0 396.85 A3.34229 3.34229 0 0 1 2.95 393.9 L6.06 393.9 A3.34229 3.34229 -180 0 0 9.02 390.94 A3.34229 3.34229
						 -180 0 0 11.97 393.9 L14.76 393.9 A3.34229 3.34229 0 0 1 17.72 396.85" class="st7"/>
		</g>
		<g id="shape70-157" v:mID="70" v:groupContext="shape" v:layerMember="0"
				transform="translate(57.7647,-274.364) rotate(5.77445)">
			<title>Lien droit / courbé</title>
			<v:userDefs>
				<v:ud v:nameU="Scale" v:val="VT0(1):26"/>
				<v:ud v:nameU="AntiScale" v:val="VT0(1):26"/>
				<v:ud v:nameU="visVersion" v:val="VT0(15):26"/>
			</v:userDefs>
			<path d="M0 396.85 L11.1 407.26 L21.85 414.21 L32.26 417.68 L42.32 417.68 L52.04 414.21 L61.41 407.26 L70.43 396.85"
					class="st8"/>
		</g>
		<g id="shape71-160" v:mID="71" v:groupContext="shape" v:layerMember="0"
				transform="translate(156.237,-323.565) rotate(-5.50174) scale(-1,1)">
			<title>Lien droit / courbé.71</title>
			<v:userDefs>
				<v:ud v:nameU="Scale" v:val="VT0(1):26"/>
				<v:ud v:nameU="AntiScale" v:val="VT0(1):26"/>
				<v:ud v:nameU="visVersion" v:val="VT0(15):26"/>
			</v:userDefs>
			<path d="M0 396.85 L20.72 379.94 L40.2 367.26 L58.43 358.8 L75.41 354.58 L91.15 354.58 L105.65 358.8 L118.9 367.26 L130.91
						 379.94 L141.67 396.85" class="st8"/>
		</g>
		<g id="shape72-163" v:mID="72" v:groupContext="shape" v:layerMember="0" transform="translate(299.884,-311.811) scale(-1,1)">
			<title>Lien droit / courbé.72</title>
			<v:userDefs>
				<v:ud v:nameU="Scale" v:val="VT0(1):26"/>
				<v:ud v:nameU="AntiScale" v:val="VT0(1):26"/>
				<v:ud v:nameU="visVersion" v:val="VT0(15):26"/>
			</v:userDefs>
			<path d="M0 396.85 L26.26 377.53 L51.38 362.51 L75.35 351.78 L98.18 345.34 L119.87 343.2 L140.42 345.34 L159.82 351.78
						 L178.08 362.51 L195.2 377.53 L211.18 396.85" class="st7"/>
		</g>
		<g id="shape73-166" v:mID="73" v:groupContext="shape" v:layerMember="0"
				transform="translate(397.945,-317.63) rotate(-1.1992) scale(-1,1)">
			<title>Lien droit / courbé.73</title>
			<v:userDefs>
				<v:ud v:nameU="Scale" v:val="VT0(1):26"/>
				<v:ud v:nameU="AntiScale" v:val="VT0(1):26"/>
				<v:ud v:nameU="visVersion" v:val="VT0(15):26"/>
			</v:userDefs>
			<path d="M0 396.85 L26.77 379.57 L53.87 366.13 L81.28 356.53 L109.02 350.77 L137.08 348.85 L165.45 350.77 L194.15 356.53
						 L223.17 366.13 L252.51 379.57 L282.18 396.85" class="st8"/>
		</g>
		<g id="shape75-169" v:mID="75" v:groupContext="shape" v:layerMember="0"
				transform="translate(202.979,-276.267) rotate(1.3564)">
			<title>Lien droit / courbé.75</title>
			<v:userDefs>
				<v:ud v:nameU="Scale" v:val="VT0(1):26"/>
				<v:ud v:nameU="AntiScale" v:val="VT0(1):26"/>
				<v:ud v:nameU="visVersion" v:val="VT0(15):26"/>
			</v:userDefs>
			<path d="M0 396.85 L29.58 416 L59.24 430.89 L88.98 441.53 L118.8 447.91 L148.7 450.04 L178.68 447.91 L208.73 441.53 L238.87
						 430.89 L269.08 416 L299.37 396.85" class="st8"/>
		</g>
		<g id="shape76-172" v:mID="76" v:groupContext="shape" v:layerMember="0"
				transform="translate(273.878,-276.266) rotate(1.36115)">
			<title>Lien droit / courbé.76</title>
			<v:userDefs>
				<v:ud v:nameU="Scale" v:val="VT0(1):26"/>
				<v:ud v:nameU="AntiScale" v:val="VT0(1):26"/>
				<v:ud v:nameU="visVersion" v:val="VT0(15):26"/>
			</v:userDefs>
			<path d="M0 396.85 L33.74 413.58 L67.33 426.13 L100.77 434.5 L134.07 438.68 L167.22 438.68 L200.22 434.5 L233.07 426.13
						 L265.77 413.58 L298.33 396.85" class="st7"/>
		</g>
		<g id="shape77-175" v:mID="77" v:groupContext="shape" v:layerMember="0"
				transform="translate(308.355,-276.288) rotate(1.22317)">
			<title>Lien droit / courbé.77</title>
			<v:userDefs>
				<v:ud v:nameU="Scale" v:val="VT0(1):26"/>
				<v:ud v:nameU="AntiScale" v:val="VT0(1):26"/>
				<v:ud v:nameU="visVersion" v:val="VT0(15):26"/>
			</v:userDefs>
			<path d="M0 396.85 L48.22 411.45 L93.61 422.4 L136.17 429.7 L175.89 433.35 L212.77 433.35 L246.82 429.7 L278.04 422.4
						 L306.43 411.45 L331.98 396.85" class="st7"/>
		</g>
		<g id="shape78-178" v:mID="78" v:groupContext="shape" v:layerMember="0"
				transform="translate(559.976,481.661) rotate(-1.94632) scale(1,-1)">
			<title>Lien droit / courbé.78</title>
			<v:userDefs>
				<v:ud v:nameU="Scale" v:val="VT0(1):26"/>
				<v:ud v:nameU="AntiScale" v:val="VT0(1):26"/>
				<v:ud v:nameU="visVersion" v:val="VT0(15):26"/>
			</v:userDefs>
			<path d="M0 396.85 L31.84 407.62 L60.79 415.32 L86.86 419.93 L110.03 421.47 L130.33 419.93 L147.73 415.32 L162.25 407.62
						 L173.88 396.85" class="st7"/>
		</g>
		<g id="shape79-181" v:mID="79" v:groupContext="shape" v:layerMember="0"
				transform="translate(234.162,-276.345) rotate(0.742774)">
			<title>Lien droit / courbé.79</title>
			<v:userDefs>
				<v:ud v:nameU="Scale" v:val="VT0(1):26"/>
				<v:ud v:nameU="AntiScale" v:val="VT0(1):26"/>
				<v:ud v:nameU="visVersion" v:val="VT0(15):26"/>
			</v:userDefs>
			<path d="M0 396.85 L43.22 416.94 L86.08 433.01 L128.58 445.06 L170.72 453.09 L212.5 457.11 L253.91 457.11 L294.96 453.09
						 L335.65 445.06 L375.98 433.01 L415.95 416.94 L455.55 396.85" class="st8"/>
		</g>
		<g id="shape80-184" v:mID="80" v:groupContext="shape" transform="translate(693.545,517.323) rotate(180)">
			<title>Crochet.80</title>
			<v:userDefs>
				<v:ud v:nameU="visVersion" v:val="VT0(15):26"/>
			</v:userDefs>
			<path d="M-0 396.85 A3.34229 3.34229 0 0 1 2.95 393.9 L6.06 393.9 A3.34229 3.34229 -180 0 0 9.02 390.94 A3.34229 3.34229
						 -180 0 0 11.97 393.9 L14.76 393.9 A3.34229 3.34229 0 0 1 17.72 396.85" class="st6"/>
		</g>
		<g id="shape86-187" v:mID="86" v:groupContext="shape" transform="translate(132.994,715.748) rotate(180)">
			<title>Crochet.86</title>
			<v:userDefs>
				<v:ud v:nameU="visVersion" v:val="VT0(15):26"/>
			</v:userDefs>
			<path d="M0 396.85 A4.01075 4.01075 0 0 1 3.54 393.31 L41.54 393.31 A4.01075 4.01075 -180 0 0 45.08 389.76 A4.01075 4.01075
						 -180 0 0 48.62 393.31 L85.04 393.31 A4.01075 4.01075 0 0 1 88.58 396.85" class="st7"/>
		</g>
		<g id="shape87-190" v:mID="87" v:groupContext="shape" transform="translate(149.293,-113.386)">
			<title>Crochet.87</title>
			<v:userDefs>
				<v:ud v:nameU="visVersion" v:val="VT0(15):26"/>
			</v:userDefs>
			<path d="M0 396.85 A4.01075 4.01075 0 0 1 3.54 393.31 L23.5 393.31 A4.01075 4.01075 -180 0 0 27.05 389.76 A4.01075 4.01075
						 -180 0 0 30.59 393.31 L49.61 393.31 A4.01075 4.01075 0 0 1 53.15 396.85" class="st7"/>
		</g>
		<g id="shape88-193" v:mID="88" v:groupContext="shape" transform="translate(220.159,-113.386)">
			<title>Crochet.88</title>
			<v:userDefs>
				<v:ud v:nameU="visVersion" v:val="VT0(15):26"/>
			</v:userDefs>
			<path d="M0 396.85 A4.01075 4.01075 0 0 1 3.54 393.31 L23.5 393.31 A4.01075 4.01075 -180 0 0 27.05 389.76 A4.01075 4.01075
						 -180 0 0 30.59 393.31 L49.61 393.31 A4.01075 4.01075 0 0 1 53.15 396.85" class="st7"/>
		</g>
		<g id="shape89-196" v:mID="89" v:groupContext="shape" transform="translate(308.742,715.748) rotate(180)">
			<title>Crochet.89</title>
			<v:userDefs>
				<v:ud v:nameU="visVersion" v:val="VT0(15):26"/>
			</v:userDefs>
			<path d="M0 396.85 A1.67115 1.67115 0 0 1 1.48 395.37 L7.54 395.37 A1.67115 1.67115 -180 0 0 9.02 393.9 A1.67115 1.67115
						 -180 0 0 10.49 395.37 L16.24 395.37 A1.67115 1.67115 0 0 1 17.72 396.85" class="st7"/>
		</g>
		<g id="shape90-199" v:mID="90" v:groupContext="shape" v:layerMember="0"
				transform="translate(47.9856,720.821) rotate(-174.226)">
			<title>Lien droit / courbé.90</title>
			<v:userDefs>
				<v:ud v:nameU="Scale" v:val="VT0(1):26"/>
				<v:ud v:nameU="AntiScale" v:val="VT0(1):26"/>
				<v:ud v:nameU="visVersion" v:val="VT0(15):26"/>
			</v:userDefs>
			<path d="M0 396.85 L14.06 386.72 L27.19 380.65 L39.39 378.62 L50.66 380.65 L61.01 386.72 L70.43 396.85" class="st7"/>
		</g>
		<g id="shape91-202" v:mID="91" v:groupContext="shape" v:layerMember="0"
				transform="translate(76.0829,679.659) rotate(-3.29552) scale(1,-1)">
			<title>Lien droit / courbé.91</title>
			<v:userDefs>
				<v:ud v:nameU="Scale" v:val="VT0(1):26"/>
				<v:ud v:nameU="AntiScale" v:val="VT0(1):26"/>
				<v:ud v:nameU="visVersion" v:val="VT0(15):26"/>
			</v:userDefs>
			<path d="M0 396.85 L21.63 405.31 L41.92 410.95 L60.88 413.77 L78.49 413.77 L94.76 410.95 L109.69 405.31 L123.28 396.85"
					class="st7"/>
		</g>
		<g id="shape92-205" v:mID="92" v:groupContext="shape" v:layerMember="0"
				transform="translate(106.428,679.919) rotate(-2.55994) scale(1,-1)">
			<title>Lien droit / courbé.92</title>
			<v:userDefs>
				<v:ud v:nameU="Scale" v:val="VT0(1):26"/>
				<v:ud v:nameU="AntiScale" v:val="VT0(1):26"/>
				<v:ud v:nameU="visVersion" v:val="VT0(15):26"/>
			</v:userDefs>
			<path d="M0 396.85 L27.84 405.31 L53.96 410.95 L78.35 413.77 L101.02 413.77 L121.96 410.95 L141.17 405.31 L158.66 396.85"
					class="st7"/>
		</g>
		<g id="shape93-208" v:mID="93" v:groupContext="shape" v:layerMember="0"
				transform="translate(157.081,-77.8763) rotate(1.12448)">
			<title>Lien droit / courbé.93</title>
			<v:userDefs>
				<v:ud v:nameU="Scale" v:val="VT0(1):26"/>
				<v:ud v:nameU="AntiScale" v:val="VT0(1):26"/>
				<v:ud v:nameU="visVersion" v:val="VT0(15):26"/>
			</v:userDefs>
			<path d="M0 396.85 L26.4 405.31 L51.17 410.95 L74.3 413.77 L95.8 413.77 L115.65 410.95 L133.88 405.31 L150.46 396.85"
					class="st7"/>
		</g>
	</g>
</svg>
