<?xml version="1.0" encoding="UTF-8" standalone="no"?>
<!DOCTYPE svg PUBLIC "-//W3C//DTD SVG 1.1//EN" "http://www.w3.org/Graphics/SVG/1.1/DTD/svg11.dtd">
<!-- Généré par Microsoft Visio, SVG Export array.svg Page-1 -->
<svg xmlns="http://www.w3.org/2000/svg" xmlns:xlink="http://www.w3.org/1999/xlink" xmlns:ev="http://www.w3.org/2001/xml-events"
		xmlns:v="http://schemas.microsoft.com/visio/2003/SVGExtensions/" width="11.6929in" height="8.26772in"
		viewBox="0 0 841.89 595.276" xml:space="preserve" color-interpolation-filters="sRGB" class="st9">
	<v:documentProperties v:langID="1036" v:metric="true" v:viewMarkup="false">
		<v:userDefs>
			<v:ud v:nameU="msvNoAutoConnect" v:val="VT0(1):26"/>
		</v:userDefs>
	</v:documentProperties>

	<style type="text/css">
	<![CDATA[
		.st1 {fill:#f2dcda;stroke:#000000;stroke-linecap:round;stroke-linejoin:round;stroke-width:0.24}
		.st2 {fill:#000000;font-family:Calibri;font-size:0.666664em}
		.st3 {fill:#f2f2f2;stroke:#000000;stroke-linecap:round;stroke-linejoin:round;stroke-width:0.24}
		.st4 {fill:#ebf1df;stroke:#000000;stroke-linecap:round;stroke-linejoin:round;stroke-width:0.24}
		.st5 {fill:#ffffff;stroke:#000000;stroke-linecap:round;stroke-linejoin:round;stroke-width:0.24}
		.st6 {stroke:#000000;stroke-linecap:round;stroke-linejoin:round;stroke-width:0.24}
		.st7 {stroke:#00b050;stroke-linecap:round;stroke-linejoin:round;stroke-width:1}
		.st8 {stroke:#000000;stroke-linecap:round;stroke-linejoin:round;stroke-width:0.239976}
		.st9 {fill:none;fill-rule:evenodd;font-size:12px;overflow:visible;stroke-linecap:square;stroke-miterlimit:3}
	]]>
	</style>

	<g v:mID="0" v:index="1" v:groupContext="foregroundPage">
		<title>Page 1</title>
		<v:pageProperties v:drawingScale="0.0393701" v:pageScale="0.0393701" v:drawingUnits="24" v:shadowOffsetX="8.50394"
				v:shadowOffsetY="-8.50394"/>
		<v:layer v:name="Lien" v:index="0"/>
		<g id="shape1-1" v:mID="1" v:groupContext="shape" transform="translate(34.7244,-411.591)">
			<title>Fonction / sous-routine</title>
			<desc>Root</desc>
			<v:userDefs>
				<v:ud v:nameU="visVersion" v:val="VT0(15):26"/>
			</v:userDefs>
			<v:textBlock v:margins="rect(1,1,1,1)" v:tabSpace="42.5197"/>
			<v:textRect cx="17.7165" cy="577.559" width="35.44" height="35.4331"/>
			<rect x="0" y="559.843" width="35.4331" height="35.4331" class="st1"/>
			<text x="9.99" y="579.96" class="st2" v:langID="1041"><v:paragraph v:horizAlign="1"/><v:tabList/>Root</text>		</g>
		<g id="shape11-4" v:mID="11" v:groupContext="shape" transform="translate(70.1575,-411.591)">
			<title>Fonction / sous-routine.11</title>
			<desc>2</desc>
			<v:userDefs>
				<v:ud v:nameU="visVersion" v:val="VT0(15):26"/>
			</v:userDefs>
			<v:textBlock v:margins="rect(1,1,1,1)" v:tabSpace="42.5197"/>
			<v:textRect cx="17.7165" cy="577.559" width="35.44" height="35.4331"/>
			<rect x="0" y="559.843" width="35.4331" height="35.4331" class="st3"/>
			<text x="15.69" y="579.96" class="st2" v:langID="1041"><v:paragraph v:horizAlign="1"/><v:tabList/>2</text>		</g>
		<g id="shape12-7" v:mID="12" v:groupContext="shape" transform="translate(105.591,-411.591)">
			<title>Fonction / sous-routine.12</title>
			<desc>3</desc>
			<v:userDefs>
				<v:ud v:nameU="visVersion" v:val="VT0(15):26"/>
			</v:userDefs>
			<v:textBlock v:margins="rect(1,1,1,1)" v:tabSpace="42.5197"/>
			<v:textRect cx="17.7165" cy="577.559" width="35.44" height="35.4331"/>
			<rect x="0" y="559.843" width="35.4331" height="35.4331" class="st4"/>
			<text x="15.69" y="579.96" class="st2" v:langID="1041"><v:paragraph v:horizAlign="1"/><v:tabList/>3</text>		</g>
		<g id="shape13-10" v:mID="13" v:groupContext="shape" transform="translate(141.024,-411.591)">
			<title>Fonction / sous-routine.13</title>
			<desc>4</desc>
			<v:userDefs>
				<v:ud v:nameU="visVersion" v:val="VT0(15):26"/>
			</v:userDefs>
			<v:textBlock v:margins="rect(1,1,1,1)" v:tabSpace="42.5197"/>
			<v:textRect cx="17.7165" cy="577.559" width="35.44" height="35.4331"/>
			<rect x="0" y="559.843" width="35.4331" height="35.4331" class="st3"/>
			<text x="15.69" y="579.96" class="st2" v:langID="1041"><v:paragraph v:horizAlign="1"/><v:tabList/>4</text>		</g>
		<g id="shape14-13" v:mID="14" v:groupContext="shape" transform="translate(175.039,-411.591)">
			<title>Fonction / sous-routine.14</title>
			<desc>5</desc>
			<v:userDefs>
				<v:ud v:nameU="visVersion" v:val="VT0(15):26"/>
			</v:userDefs>
			<v:textBlock v:margins="rect(1,1,1,1)" v:tabSpace="42.5197"/>
			<v:textRect cx="17.7165" cy="577.559" width="35.44" height="35.4331"/>
			<rect x="0" y="559.843" width="35.4331" height="35.4331" class="st3"/>
			<text x="15.69" y="579.96" class="st2" v:langID="1041"><v:paragraph v:horizAlign="1"/><v:tabList/>5</text>		</g>
		<g id="shape15-16" v:mID="15" v:groupContext="shape" transform="translate(210.472,-411.591)">
			<title>Fonction / sous-routine.15</title>
			<desc>6</desc>
			<v:userDefs>
				<v:ud v:nameU="visVersion" v:val="VT0(15):26"/>
			</v:userDefs>
			<v:textBlock v:margins="rect(1,1,1,1)" v:tabSpace="42.5197"/>
			<v:textRect cx="17.7165" cy="577.559" width="35.44" height="35.4331"/>
			<rect x="0" y="559.843" width="35.4331" height="35.4331" class="st3"/>
			<text x="15.69" y="579.96" class="st2" v:langID="1041"><v:paragraph v:horizAlign="1"/><v:tabList/>6</text>		</g>
		<g id="shape16-19" v:mID="16" v:groupContext="shape" transform="translate(245.906,-411.591)">
			<title>Fonction / sous-routine.16</title>
			<desc>7</desc>
			<v:userDefs>
				<v:ud v:nameU="visVersion" v:val="VT0(15):26"/>
			</v:userDefs>
			<v:textBlock v:margins="rect(1,1,1,1)" v:tabSpace="42.5197"/>
			<v:textRect cx="17.7165" cy="577.559" width="35.44" height="35.4331"/>
			<rect x="0" y="559.843" width="35.4331" height="35.4331" class="st3"/>
			<text x="15.69" y="579.96" class="st2" v:langID="1041"><v:paragraph v:horizAlign="1"/><v:tabList/>7</text>		</g>
		<g id="shape17-22" v:mID="17" v:groupContext="shape" transform="translate(281.339,-411.591)">
			<title>Fonction / sous-routine.17</title>
			<desc>8</desc>
			<v:userDefs>
				<v:ud v:nameU="visVersion" v:val="VT0(15):26"/>
			</v:userDefs>
			<v:textBlock v:margins="rect(1,1,1,1)" v:tabSpace="42.5197"/>
			<v:textRect cx="17.7165" cy="577.559" width="35.44" height="35.4331"/>
			<rect x="0" y="559.843" width="35.4331" height="35.4331" class="st4"/>
			<text x="15.69" y="579.96" class="st2" v:langID="1041"><v:paragraph v:horizAlign="1"/><v:tabList/>8</text>		</g>
		<g id="shape18-25" v:mID="18" v:groupContext="shape" transform="translate(316.772,-411.591)">
			<title>Fonction / sous-routine.18</title>
			<desc>9</desc>
			<v:userDefs>
				<v:ud v:nameU="visVersion" v:val="VT0(15):26"/>
			</v:userDefs>
			<v:textBlock v:margins="rect(1,1,1,1)" v:tabSpace="42.5197"/>
			<v:textRect cx="17.7165" cy="577.559" width="35.44" height="35.4331"/>
			<rect x="0" y="559.843" width="35.4331" height="35.4331" class="st4"/>
			<text x="15.69" y="579.96" class="st2" v:langID="1041"><v:paragraph v:horizAlign="1"/><v:tabList/>9</text>		</g>
		<g id="shape19-28" v:mID="19" v:groupContext="shape" transform="translate(352.205,-411.591)">
			<title>Fonction / sous-routine.19</title>
			<desc>10</desc>
			<v:userDefs>
				<v:ud v:nameU="visVersion" v:val="VT0(15):26"/>
			</v:userDefs>
			<v:textBlock v:margins="rect(1,1,1,1)" v:tabSpace="42.5197"/>
			<v:textRect cx="17.7165" cy="577.559" width="35.44" height="35.4331"/>
			<rect x="0" y="559.843" width="35.4331" height="35.4331" class="st4"/>
			<text x="13.66" y="579.96" class="st2" v:langID="1041"><v:paragraph v:horizAlign="1"/><v:tabList/>10</text>		</g>
		<g id="shape20-31" v:mID="20" v:groupContext="shape" transform="translate(387.638,-411.591)">
			<title>Fonction / sous-routine.20</title>
			<desc>11</desc>
			<v:userDefs>
				<v:ud v:nameU="visVersion" v:val="VT0(15):26"/>
			</v:userDefs>
			<v:textBlock v:margins="rect(1,1,1,1)" v:tabSpace="42.5197"/>
			<v:textRect cx="17.7165" cy="577.559" width="35.44" height="35.4331"/>
			<rect x="0" y="559.843" width="35.4331" height="35.4331" class="st3"/>
			<text x="13.66" y="579.96" class="st2" v:langID="1041"><v:paragraph v:horizAlign="1"/><v:tabList/>11</text>		</g>
		<g id="shape21-34" v:mID="21" v:groupContext="shape" transform="translate(423.071,-411.591)">
			<title>Fonction / sous-routine.21</title>
			<desc>12</desc>
			<v:userDefs>
				<v:ud v:nameU="visVersion" v:val="VT0(15):26"/>
			</v:userDefs>
			<v:textBlock v:margins="rect(1,1,1,1)" v:tabSpace="42.5197"/>
			<v:textRect cx="17.7165" cy="577.559" width="35.44" height="35.4331"/>
			<rect x="0" y="559.843" width="35.4331" height="35.4331" class="st3"/>
			<text x="13.66" y="579.96" class="st2" v:langID="1041"><v:paragraph v:horizAlign="1"/><v:tabList/>12</text>		</g>
		<g id="shape22-37" v:mID="22" v:groupContext="shape" transform="translate(457.087,-411.591)">
			<title>Fonction / sous-routine.22</title>
			<desc>13</desc>
			<v:userDefs>
				<v:ud v:nameU="visVersion" v:val="VT0(15):26"/>
			</v:userDefs>
			<v:textBlock v:margins="rect(1,1,1,1)" v:tabSpace="42.5197"/>
			<v:textRect cx="17.7165" cy="577.559" width="35.44" height="35.4331"/>
			<rect x="0" y="559.843" width="35.4331" height="35.4331" class="st3"/>
			<text x="13.66" y="579.96" class="st2" v:langID="1041"><v:paragraph v:horizAlign="1"/><v:tabList/>13</text>		</g>
		<g id="shape23-40" v:mID="23" v:groupContext="shape" transform="translate(492.52,-411.591)">
			<title>Fonction / sous-routine.23</title>
			<desc>14</desc>
			<v:userDefs>
				<v:ud v:nameU="visVersion" v:val="VT0(15):26"/>
			</v:userDefs>
			<v:textBlock v:margins="rect(1,1,1,1)" v:tabSpace="42.5197"/>
			<v:textRect cx="17.7165" cy="577.559" width="35.44" height="35.4331"/>
			<rect x="0" y="559.843" width="35.4331" height="35.4331" class="st3"/>
			<text x="13.66" y="579.96" class="st2" v:langID="1041"><v:paragraph v:horizAlign="1"/><v:tabList/>14</text>		</g>
		<g id="shape24-43" v:mID="24" v:groupContext="shape" transform="translate(527.953,-411.591)">
			<title>Fonction / sous-routine.24</title>
			<desc>15</desc>
			<v:userDefs>
				<v:ud v:nameU="visVersion" v:val="VT0(15):26"/>
			</v:userDefs>
			<v:textBlock v:margins="rect(1,1,1,1)" v:tabSpace="42.5197"/>
			<v:textRect cx="17.7165" cy="577.559" width="35.44" height="35.4331"/>
			<rect x="0" y="559.843" width="35.4331" height="35.4331" class="st3"/>
			<text x="13.66" y="579.96" class="st2" v:langID="1041"><v:paragraph v:horizAlign="1"/><v:tabList/>15</text>		</g>
		<g id="shape25-46" v:mID="25" v:groupContext="shape" transform="translate(563.386,-411.591)">
			<title>Fonction / sous-routine.25</title>
			<desc>16</desc>
			<v:userDefs>
				<v:ud v:nameU="visVersion" v:val="VT0(15):26"/>
			</v:userDefs>
			<v:textBlock v:margins="rect(1,1,1,1)" v:tabSpace="42.5197"/>
			<v:textRect cx="17.7165" cy="577.559" width="35.44" height="35.4331"/>
			<rect x="0" y="559.843" width="35.4331" height="35.4331" class="st4"/>
			<text x="13.66" y="579.96" class="st2" v:langID="1041"><v:paragraph v:horizAlign="1"/><v:tabList/>16</text>		</g>
		<g id="shape32-49" v:mID="32" v:groupContext="shape" transform="translate(596.693,-411.591)">
			<title>Fonction / sous-routine.32</title>
			<desc>17</desc>
			<v:userDefs>
				<v:ud v:nameU="visVersion" v:val="VT0(15):26"/>
			</v:userDefs>
			<v:textBlock v:margins="rect(1,1,1,1)" v:tabSpace="42.5197"/>
			<v:textRect cx="17.7165" cy="577.559" width="35.44" height="35.4331"/>
			<rect x="0" y="559.843" width="35.4331" height="35.4331" class="st4"/>
			<text x="13.66" y="579.96" class="st2" v:langID="1041"><v:paragraph v:horizAlign="1"/><v:tabList/>17</text>		</g>
		<g id="shape33-52" v:mID="33" v:groupContext="shape" transform="translate(632.126,-411.591)">
			<title>Fonction / sous-routine.33</title>
			<desc>18</desc>
			<v:userDefs>
				<v:ud v:nameU="visVersion" v:val="VT0(15):26"/>
			</v:userDefs>
			<v:textBlock v:margins="rect(1,1,1,1)" v:tabSpace="42.5197"/>
			<v:textRect cx="17.7165" cy="577.559" width="35.44" height="35.4331"/>
			<rect x="0" y="559.843" width="35.4331" height="35.4331" class="st4"/>
			<text x="13.66" y="579.96" class="st2" v:langID="1041"><v:paragraph v:horizAlign="1"/><v:tabList/>18</text>		</g>
		<g id="shape34-55" v:mID="34" v:groupContext="shape" transform="translate(666.142,-411.591)">
			<title>Fonction / sous-routine.34</title>
			<desc>19</desc>
			<v:userDefs>
				<v:ud v:nameU="visVersion" v:val="VT0(15):26"/>
			</v:userDefs>
			<v:textBlock v:margins="rect(1,1,1,1)" v:tabSpace="42.5197"/>
			<v:textRect cx="17.7165" cy="577.559" width="35.44" height="35.4331"/>
			<rect x="0" y="559.843" width="35.4331" height="35.4331" class="st4"/>
			<text x="13.66" y="579.96" class="st2" v:langID="1041"><v:paragraph v:horizAlign="1"/><v:tabList/>19</text>		</g>
		<g id="shape35-58" v:mID="35" v:groupContext="shape" transform="translate(701.575,-411.591)">
			<title>Fonction / sous-routine.35</title>
			<desc>20</desc>
			<v:userDefs>
				<v:ud v:nameU="visVersion" v:val="VT0(15):26"/>
			</v:userDefs>
			<v:textBlock v:margins="rect(1,1,1,1)" v:tabSpace="42.5197"/>
			<v:textRect cx="17.7165" cy="577.559" width="35.44" height="35.4331"/>
			<rect x="0" y="559.843" width="35.4331" height="35.4331" class="st3"/>
			<text x="13.66" y="579.96" class="st2" v:langID="1041"><v:paragraph v:horizAlign="1"/><v:tabList/>20</text>		</g>
		<g id="shape36-61" v:mID="36" v:groupContext="shape" transform="translate(737.008,-411.591)">
			<title>Fonction / sous-routine.36</title>
			<desc>21</desc>
			<v:userDefs>
				<v:ud v:nameU="visVersion" v:val="VT0(15):26"/>
			</v:userDefs>
			<v:textBlock v:margins="rect(1,1,1,1)" v:tabSpace="42.5197"/>
			<v:textRect cx="17.7165" cy="577.559" width="35.44" height="35.4331"/>
			<rect x="0" y="559.843" width="35.4331" height="35.4331" class="st4"/>
			<text x="13.66" y="579.96" class="st2" v:langID="1041"><v:paragraph v:horizAlign="1"/><v:tabList/>21</text>		</g>
		<g id="shape37-64" v:mID="37" v:groupContext="shape" transform="translate(772.441,-411.591)">
			<title>Fonction / sous-routine.37</title>
			<desc>...</desc>
			<v:userDefs>
				<v:ud v:nameU="visVersion" v:val="VT0(15):26"/>
			</v:userDefs>
			<v:textBlock v:margins="rect(1,1,1,1)" v:tabSpace="42.5197"/>
			<v:textRect cx="17.7165" cy="577.559" width="35.44" height="35.4331"/>
			<rect x="0" y="559.843" width="35.4331" height="35.4331" class="st5"/>
			<text x="14.69" y="579.96" class="st2" v:langID="1041"><v:paragraph v:horizAlign="1"/><v:tabList/>...</text>		</g>
		<g id="shape38-67" v:mID="38" v:groupContext="shape" transform="translate(34.7244,-213.165)">
			<title>Fonction / sous-routine.38</title>
			<desc>3</desc>
			<v:userDefs>
				<v:ud v:nameU="visVersion" v:val="VT0(15):26"/>
			</v:userDefs>
			<v:textBlock v:margins="rect(1,1,1,1)" v:tabSpace="42.5197"/>
			<v:textRect cx="17.7165" cy="577.559" width="35.44" height="35.4331"/>
			<rect x="0" y="559.843" width="35.4331" height="35.4331" class="st4"/>
			<text x="15.69" y="579.96" class="st2" v:langID="1041"><v:paragraph v:horizAlign="1"/><v:tabList/>3</text>		</g>
		<g id="shape39-70" v:mID="39" v:groupContext="shape" transform="translate(70.1575,-213.165)">
			<title>Fonction / sous-routine.39</title>
			<desc>8</desc>
			<v:userDefs>
				<v:ud v:nameU="visVersion" v:val="VT0(15):26"/>
			</v:userDefs>
			<v:textBlock v:margins="rect(1,1,1,1)" v:tabSpace="42.5197"/>
			<v:textRect cx="17.7165" cy="577.559" width="35.44" height="35.4331"/>
			<rect x="0" y="559.843" width="35.4331" height="35.4331" class="st4"/>
			<text x="15.69" y="579.96" class="st2" v:langID="1041"><v:paragraph v:horizAlign="1"/><v:tabList/>8</text>		</g>
		<g id="shape40-73" v:mID="40" v:groupContext="shape" transform="translate(105.591,-213.165)">
			<title>Fonction / sous-routine.40</title>
			<desc>9</desc>
			<v:userDefs>
				<v:ud v:nameU="visVersion" v:val="VT0(15):26"/>
			</v:userDefs>
			<v:textBlock v:margins="rect(1,1,1,1)" v:tabSpace="42.5197"/>
			<v:textRect cx="17.7165" cy="577.559" width="35.44" height="35.4331"/>
			<rect x="0" y="559.843" width="35.4331" height="35.4331" class="st4"/>
			<text x="15.69" y="579.96" class="st2" v:langID="1041"><v:paragraph v:horizAlign="1"/><v:tabList/>9</text>		</g>
		<g id="shape41-76" v:mID="41" v:groupContext="shape" transform="translate(141.024,-213.165)">
			<title>Fonction / sous-routine.41</title>
			<desc>10</desc>
			<v:userDefs>
				<v:ud v:nameU="visVersion" v:val="VT0(15):26"/>
			</v:userDefs>
			<v:textBlock v:margins="rect(1,1,1,1)" v:tabSpace="42.5197"/>
			<v:textRect cx="17.7165" cy="577.559" width="35.44" height="35.4331"/>
			<rect x="0" y="559.843" width="35.4331" height="35.4331" class="st4"/>
			<text x="13.66" y="579.96" class="st2" v:langID="1041"><v:paragraph v:horizAlign="1"/><v:tabList/>10</text>		</g>
		<g id="shape42-79" v:mID="42" v:groupContext="shape" transform="translate(175.039,-213.165)">
			<title>Fonction / sous-routine.42</title>
			<desc>16</desc>
			<v:userDefs>
				<v:ud v:nameU="visVersion" v:val="VT0(15):26"/>
			</v:userDefs>
			<v:textBlock v:margins="rect(1,1,1,1)" v:tabSpace="42.5197"/>
			<v:textRect cx="17.7165" cy="577.559" width="35.44" height="35.4331"/>
			<rect x="0" y="559.843" width="35.4331" height="35.4331" class="st4"/>
			<text x="13.66" y="579.96" class="st2" v:langID="1041"><v:paragraph v:horizAlign="1"/><v:tabList/>16</text>		</g>
		<g id="shape43-82" v:mID="43" v:groupContext="shape" transform="translate(210.472,-213.165)">
			<title>Fonction / sous-routine.43</title>
			<desc>17</desc>
			<v:userDefs>
				<v:ud v:nameU="visVersion" v:val="VT0(15):26"/>
			</v:userDefs>
			<v:textBlock v:margins="rect(1,1,1,1)" v:tabSpace="42.5197"/>
			<v:textRect cx="17.7165" cy="577.559" width="35.44" height="35.4331"/>
			<rect x="0" y="559.843" width="35.4331" height="35.4331" class="st4"/>
			<text x="13.66" y="579.96" class="st2" v:langID="1041"><v:paragraph v:horizAlign="1"/><v:tabList/>17</text>		</g>
		<g id="shape44-85" v:mID="44" v:groupContext="shape" transform="translate(245.906,-213.165)">
			<title>Fonction / sous-routine.44</title>
			<desc>18</desc>
			<v:userDefs>
				<v:ud v:nameU="visVersion" v:val="VT0(15):26"/>
			</v:userDefs>
			<v:textBlock v:margins="rect(1,1,1,1)" v:tabSpace="42.5197"/>
			<v:textRect cx="17.7165" cy="577.559" width="35.44" height="35.4331"/>
			<rect x="0" y="559.843" width="35.4331" height="35.4331" class="st4"/>
			<text x="13.66" y="579.96" class="st2" v:langID="1041"><v:paragraph v:horizAlign="1"/><v:tabList/>18</text>		</g>
		<g id="shape45-88" v:mID="45" v:groupContext="shape" transform="translate(281.339,-213.165)">
			<title>Fonction / sous-routine.45</title>
			<desc>19</desc>
			<v:userDefs>
				<v:ud v:nameU="visVersion" v:val="VT0(15):26"/>
			</v:userDefs>
			<v:textBlock v:margins="rect(1,1,1,1)" v:tabSpace="42.5197"/>
			<v:textRect cx="17.7165" cy="577.559" width="35.44" height="35.4331"/>
			<rect x="0" y="559.843" width="35.4331" height="35.4331" class="st4"/>
			<text x="13.66" y="579.96" class="st2" v:langID="1041"><v:paragraph v:horizAlign="1"/><v:tabList/>19</text>		</g>
		<g id="shape46-91" v:mID="46" v:groupContext="shape" transform="translate(316.772,-213.165)">
			<title>Fonction / sous-routine.46</title>
			<desc>21</desc>
			<v:userDefs>
				<v:ud v:nameU="visVersion" v:val="VT0(15):26"/>
			</v:userDefs>
			<v:textBlock v:margins="rect(1,1,1,1)" v:tabSpace="42.5197"/>
			<v:textRect cx="17.7165" cy="577.559" width="35.44" height="35.4331"/>
			<rect x="0" y="559.843" width="35.4331" height="35.4331" class="st4"/>
			<text x="13.66" y="579.96" class="st2" v:langID="1041"><v:paragraph v:horizAlign="1"/><v:tabList/>21</text>		</g>
		<g id="shape47-94" v:mID="47" v:groupContext="shape" transform="translate(352.205,-213.165)">
			<title>Fonction / sous-routine.47</title>
			<desc>...</desc>
			<v:userDefs>
				<v:ud v:nameU="visVersion" v:val="VT0(15):26"/>
			</v:userDefs>
			<v:textBlock v:margins="rect(1,1,1,1)" v:tabSpace="42.5197"/>
			<v:textRect cx="17.7165" cy="577.559" width="35.44" height="35.4331"/>
			<rect x="0" y="559.843" width="35.4331" height="35.4331" class="st5"/>
			<text x="14.69" y="579.96" class="st2" v:langID="1041"><v:paragraph v:horizAlign="1"/><v:tabList/>...</text>		</g>
		<g id="shape48-97" v:mID="48" v:groupContext="shape" transform="translate(387.638,-213.165)">
			<title>Fonction / sous-routine.48</title>
			<desc>...</desc>
			<v:userDefs>
				<v:ud v:nameU="visVersion" v:val="VT0(15):26"/>
			</v:userDefs>
			<v:textBlock v:margins="rect(1,1,1,1)" v:tabSpace="42.5197"/>
			<v:textRect cx="17.7165" cy="577.559" width="35.44" height="35.4331"/>
			<rect x="0" y="559.843" width="35.4331" height="35.4331" class="st5"/>
			<text x="14.69" y="579.96" class="st2" v:langID="1041"><v:paragraph v:horizAlign="1"/><v:tabList/>...</text>		</g>
		<g id="shape49-100" v:mID="49" v:groupContext="shape" transform="translate(423.071,-213.165)">
			<title>Fonction / sous-routine.49</title>
			<desc>...</desc>
			<v:userDefs>
				<v:ud v:nameU="visVersion" v:val="VT0(15):26"/>
			</v:userDefs>
			<v:textBlock v:margins="rect(1,1,1,1)" v:tabSpace="42.5197"/>
			<v:textRect cx="17.7165" cy="577.559" width="35.44" height="35.4331"/>
			<rect x="0" y="559.843" width="35.4331" height="35.4331" class="st5"/>
			<text x="14.69" y="579.96" class="st2" v:langID="1041"><v:paragraph v:horizAlign="1"/><v:tabList/>...</text>		</g>
		<g id="shape50-103" v:mID="50" v:groupContext="shape" transform="translate(457.087,-213.165)">
			<title>Fonction / sous-routine.50</title>
			<desc>...</desc>
			<v:userDefs>
				<v:ud v:nameU="visVersion" v:val="VT0(15):26"/>
			</v:userDefs>
			<v:textBlock v:margins="rect(1,1,1,1)" v:tabSpace="42.5197"/>
			<v:textRect cx="17.7165" cy="577.559" width="35.44" height="35.4331"/>
			<rect x="0" y="559.843" width="35.4331" height="35.4331" class="st5"/>
			<text x="14.69" y="579.96" class="st2" v:langID="1041"><v:paragraph v:horizAlign="1"/><v:tabList/>...</text>		</g>
		<g id="shape51-106" v:mID="51" v:groupContext="shape" transform="translate(492.52,-213.165)">
			<title>Fonction / sous-routine.51</title>
			<desc>...</desc>
			<v:userDefs>
				<v:ud v:nameU="visVersion" v:val="VT0(15):26"/>
			</v:userDefs>
			<v:textBlock v:margins="rect(1,1,1,1)" v:tabSpace="42.5197"/>
			<v:textRect cx="17.7165" cy="577.559" width="35.44" height="35.4331"/>
			<rect x="0" y="559.843" width="35.4331" height="35.4331" class="st5"/>
			<text x="14.69" y="579.96" class="st2" v:langID="1041"><v:paragraph v:horizAlign="1"/><v:tabList/>...</text>		</g>
		<g id="shape52-109" v:mID="52" v:groupContext="shape" transform="translate(527.953,-213.165)">
			<title>Fonction / sous-routine.52</title>
			<desc>...</desc>
			<v:userDefs>
				<v:ud v:nameU="visVersion" v:val="VT0(15):26"/>
			</v:userDefs>
			<v:textBlock v:margins="rect(1,1,1,1)" v:tabSpace="42.5197"/>
			<v:textRect cx="17.7165" cy="577.559" width="35.44" height="35.4331"/>
			<rect x="0" y="559.843" width="35.4331" height="35.4331" class="st5"/>
			<text x="14.69" y="579.96" class="st2" v:langID="1041"><v:paragraph v:horizAlign="1"/><v:tabList/>...</text>		</g>
		<g id="shape53-112" v:mID="53" v:groupContext="shape" transform="translate(563.386,-213.165)">
			<title>Fonction / sous-routine.53</title>
			<desc>...</desc>
			<v:userDefs>
				<v:ud v:nameU="visVersion" v:val="VT0(15):26"/>
			</v:userDefs>
			<v:textBlock v:margins="rect(1,1,1,1)" v:tabSpace="42.5197"/>
			<v:textRect cx="17.7165" cy="577.559" width="35.44" height="35.4331"/>
			<rect x="0" y="559.843" width="35.4331" height="35.4331" class="st5"/>
			<text x="14.69" y="579.96" class="st2" v:langID="1041"><v:paragraph v:horizAlign="1"/><v:tabList/>...</text>		</g>
		<g id="shape54-115" v:mID="54" v:groupContext="shape" transform="translate(596.693,-213.165)">
			<title>Fonction / sous-routine.54</title>
			<desc>...</desc>
			<v:userDefs>
				<v:ud v:nameU="visVersion" v:val="VT0(15):26"/>
			</v:userDefs>
			<v:textBlock v:margins="rect(1,1,1,1)" v:tabSpace="42.5197"/>
			<v:textRect cx="17.7165" cy="577.559" width="35.44" height="35.4331"/>
			<rect x="0" y="559.843" width="35.4331" height="35.4331" class="st5"/>
			<text x="14.69" y="579.96" class="st2" v:langID="1041"><v:paragraph v:horizAlign="1"/><v:tabList/>...</text>		</g>
		<g id="shape55-118" v:mID="55" v:groupContext="shape" transform="translate(632.126,-213.165)">
			<title>Fonction / sous-routine.55</title>
			<desc>...</desc>
			<v:userDefs>
				<v:ud v:nameU="visVersion" v:val="VT0(15):26"/>
			</v:userDefs>
			<v:textBlock v:margins="rect(1,1,1,1)" v:tabSpace="42.5197"/>
			<v:textRect cx="17.7165" cy="577.559" width="35.44" height="35.4331"/>
			<rect x="0" y="559.843" width="35.4331" height="35.4331" class="st5"/>
			<text x="14.69" y="579.96" class="st2" v:langID="1041"><v:paragraph v:horizAlign="1"/><v:tabList/>...</text>		</g>
		<g id="shape56-121" v:mID="56" v:groupContext="shape" transform="translate(666.142,-213.165)">
			<title>Fonction / sous-routine.56</title>
			<desc>...</desc>
			<v:userDefs>
				<v:ud v:nameU="visVersion" v:val="VT0(15):26"/>
			</v:userDefs>
			<v:textBlock v:margins="rect(1,1,1,1)" v:tabSpace="42.5197"/>
			<v:textRect cx="17.7165" cy="577.559" width="35.44" height="35.4331"/>
			<rect x="0" y="559.843" width="35.4331" height="35.4331" class="st5"/>
			<text x="14.69" y="579.96" class="st2" v:langID="1041"><v:paragraph v:horizAlign="1"/><v:tabList/>...</text>		</g>
		<g id="shape57-124" v:mID="57" v:groupContext="shape" transform="translate(701.575,-213.165)">
			<title>Fonction / sous-routine.57</title>
			<desc>...</desc>
			<v:userDefs>
				<v:ud v:nameU="visVersion" v:val="VT0(15):26"/>
			</v:userDefs>
			<v:textBlock v:margins="rect(1,1,1,1)" v:tabSpace="42.5197"/>
			<v:textRect cx="17.7165" cy="577.559" width="35.44" height="35.4331"/>
			<rect x="0" y="559.843" width="35.4331" height="35.4331" class="st5"/>
			<text x="14.69" y="579.96" class="st2" v:langID="1041"><v:paragraph v:horizAlign="1"/><v:tabList/>...</text>		</g>
		<g id="shape58-127" v:mID="58" v:groupContext="shape" transform="translate(737.008,-213.165)">
			<title>Fonction / sous-routine.58</title>
			<desc>...</desc>
			<v:userDefs>
				<v:ud v:nameU="visVersion" v:val="VT0(15):26"/>
			</v:userDefs>
			<v:textBlock v:margins="rect(1,1,1,1)" v:tabSpace="42.5197"/>
			<v:textRect cx="17.7165" cy="577.559" width="35.44" height="35.4331"/>
			<rect x="0" y="559.843" width="35.4331" height="35.4331" class="st5"/>
			<text x="14.69" y="579.96" class="st2" v:langID="1041"><v:paragraph v:horizAlign="1"/><v:tabList/>...</text>		</g>
		<g id="shape59-130" v:mID="59" v:groupContext="shape" transform="translate(772.441,-213.165)">
			<title>Fonction / sous-routine.59</title>
			<desc>...</desc>
			<v:userDefs>
				<v:ud v:nameU="visVersion" v:val="VT0(15):26"/>
			</v:userDefs>
			<v:textBlock v:margins="rect(1,1,1,1)" v:tabSpace="42.5197"/>
			<v:textRect cx="17.7165" cy="577.559" width="35.44" height="35.4331"/>
			<rect x="0" y="559.843" width="35.4331" height="35.4331" class="st5"/>
			<text x="14.69" y="579.96" class="st2" v:langID="1041"><v:paragraph v:horizAlign="1"/><v:tabList/>...</text>		</g>
		<g id="shape60-133" v:mID="60" v:groupContext="shape" transform="translate(167.598,778.961) rotate(180)">
			<title>Crochet</title>
			<v:userDefs>
				<v:ud v:nameU="visVersion" v:val="VT0(15):26"/>
			</v:userDefs>
			<path d="M0 595.28 A4.01075 4.01075 0 0 1 3.54 591.73 L41.54 591.73 A4.01075 4.01075 -180 0 0 45.08 588.19 A4.01075 4.01075
						 -180 0 0 48.62 591.73 L85.04 591.73 A4.01075 4.01075 0 0 1 88.58 595.28" class="st6"/>
		</g>
		<g id="shape63-136" v:mID="63" v:groupContext="shape" transform="translate(183.898,-447.024)">
			<title>Crochet.63</title>
			<v:userDefs>
				<v:ud v:nameU="visVersion" v:val="VT0(15):26"/>
			</v:userDefs>
			<path d="M0 595.28 A8.0215 8.0215 0 0 1 7.09 588.19 L37.99 588.19 A8.0215 8.0215 -180 0 0 45.08 581.1 A8.0215 8.0215
						 -180 0 0 52.17 588.19 L81.5 588.19 A8.0215 8.0215 0 0 1 88.58 595.28" class="st6"/>
		</g>
		<g id="shape64-139" v:mID="64" v:groupContext="shape" transform="translate(290.197,-447.024)">
			<title>Crochet.64</title>
			<v:userDefs>
				<v:ud v:nameU="visVersion" v:val="VT0(15):26"/>
			</v:userDefs>
			<path d="M0 595.28 A4.01075 4.01075 0 0 1 3.54 591.73 L41.54 591.73 A4.01075 4.01075 -180 0 0 45.08 588.19 A4.01075 4.01075
						 -180 0 0 48.62 591.73 L85.04 591.73 A4.01075 4.01075 0 0 1 88.58 595.28" class="st7"/>
		</g>
		<g id="shape65-142" v:mID="65" v:groupContext="shape" transform="translate(396.496,-447.024)">
			<title>Crochet.65</title>
			<v:userDefs>
				<v:ud v:nameU="visVersion" v:val="VT0(15):26"/>
			</v:userDefs>
			<path d="M0 595.28 A3.34229 3.34229 0 0 1 2.95 592.32 L41.41 592.32 A3.34229 3.34229 -180 0 0 44.36 589.37 A3.34229 3.34229
						 -180 0 0 47.31 592.32 L84.21 592.32 A3.34229 3.34229 0 0 1 87.17 595.28" class="st6"/>
		</g>
		<g id="shape66-145" v:mID="66" v:groupContext="shape" transform="translate(554.528,778.961) rotate(180)">
			<title>Crochet.66</title>
			<v:userDefs>
				<v:ud v:nameU="visVersion" v:val="VT0(15):26"/>
			</v:userDefs>
			<path d="M0 595.28 A4.01075 4.01075 0 0 1 3.54 591.73 L23.5 591.73 A4.01075 4.01075 -180 0 0 27.05 588.19 A4.01075 4.01075
						 -180 0 0 30.59 591.73 L49.61 591.73 A4.01075 4.01075 0 0 1 53.15 595.28" class="st6"/>
		</g>
		<g id="shape67-148" v:mID="67" v:groupContext="shape" transform="translate(623.268,778.961) rotate(180)">
			<title>Crochet.67</title>
			<v:userDefs>
				<v:ud v:nameU="visVersion" v:val="VT0(15):26"/>
			</v:userDefs>
			<path d="M0 595.28 A4.01075 4.01075 0 0 1 3.54 591.73 L22.42 591.73 A4.01075 4.01075 -180 0 0 25.97 588.19 A4.01075 4.01075
						 -180 0 0 29.51 591.73 L47.48 591.73 A4.01075 4.01075 0 0 1 51.02 595.28" class="st7"/>
		</g>
		<g id="shape68-151" v:mID="68" v:groupContext="shape" transform="translate(692.717,778.961) rotate(180)">
			<title>Crochet.68</title>
			<v:userDefs>
				<v:ud v:nameU="visVersion" v:val="VT0(15):26"/>
			</v:userDefs>
			<path d="M0 595.28 A4.01075 4.01075 0 0 1 3.54 591.73 L22.78 591.73 A4.01075 4.01075 -180 0 0 26.33 588.19 A4.01075 4.01075
						 -180 0 0 29.87 591.73 L48.19 591.73 A4.01075 4.01075 0 0 1 51.73 595.28" class="st7"/>
		</g>
		<g id="shape69-154" v:mID="69" v:groupContext="shape" transform="translate(745.866,-447.024)">
			<title>Crochet.69</title>
			<v:userDefs>
				<v:ud v:nameU="visVersion" v:val="VT0(15):26"/>
			</v:userDefs>
			<path d="M-0 595.28 A3.34229 3.34229 0 0 1 2.95 592.32 L6.06 592.32 A3.34229 3.34229 -180 0 0 9.02 589.37 A3.34229 3.34229
						 -180 0 0 11.97 592.32 L14.76 592.32 A3.34229 3.34229 0 0 1 17.72 595.28" class="st7"/>
		</g>
		<g id="shape70-157" v:mID="70" v:groupContext="shape" v:layerMember="0"
				transform="translate(112.333,-408.57) rotate(5.77445)">
			<title>Lien droit / courbé</title>
			<v:userDefs>
				<v:ud v:nameU="Scale" v:val="VT0(1):26"/>
				<v:ud v:nameU="AntiScale" v:val="VT0(1):26"/>
				<v:ud v:nameU="visVersion" v:val="VT0(15):26"/>
			</v:userDefs>
			<path d="M0 595.28 L11.1 605.69 L21.85 612.63 L32.26 616.1 L42.32 616.1 L52.04 612.63 L61.41 605.69 L70.43 595.28"
					class="st8"/>
		</g>
		<g id="shape71-160" v:mID="71" v:groupContext="shape" v:layerMember="0"
				transform="translate(171.817,-457.864) rotate(-5.50174) scale(-1,1)">
			<title>Lien droit / courbé.71</title>
			<v:userDefs>
				<v:ud v:nameU="Scale" v:val="VT0(1):26"/>
				<v:ud v:nameU="AntiScale" v:val="VT0(1):26"/>
				<v:ud v:nameU="visVersion" v:val="VT0(15):26"/>
			</v:userDefs>
			<path d="M0 595.28 L20.72 578.37 L40.2 565.68 L58.43 557.23 L75.41 553 L91.15 553 L105.65 557.23 L118.9 565.68 L130.91
						 578.37 L141.67 595.28" class="st8"/>
		</g>
		<g id="shape72-163" v:mID="72" v:groupContext="shape" v:layerMember="0"
				transform="translate(315.387,-453.778) rotate(-1.91481) scale(-1,1)">
			<title>Lien droit / courbé.72</title>
			<v:userDefs>
				<v:ud v:nameU="Scale" v:val="VT0(1):26"/>
				<v:ud v:nameU="AntiScale" v:val="VT0(1):26"/>
				<v:ud v:nameU="visVersion" v:val="VT0(15):26"/>
			</v:userDefs>
			<path d="M0 595.28 L26.37 575.96 L51.6 560.94 L75.67 550.21 L98.6 543.77 L120.39 541.62 L141.02 543.77 L160.51 550.21
						 L178.85 560.94 L196.04 575.96 L212.09 595.28" class="st7"/>
		</g>
		<g id="shape73-166" v:mID="73" v:groupContext="shape" v:layerMember="0"
				transform="translate(428.397,-452.799) rotate(-1.1992) scale(-1,1)">
			<title>Lien droit / courbé.73</title>
			<v:userDefs>
				<v:ud v:nameU="Scale" v:val="VT0(1):26"/>
				<v:ud v:nameU="AntiScale" v:val="VT0(1):26"/>
				<v:ud v:nameU="visVersion" v:val="VT0(15):26"/>
			</v:userDefs>
			<path d="M0 595.28 L26.77 578 L53.87 564.56 L81.28 554.96 L109.02 549.2 L137.08 547.28 L165.45 549.2 L194.15 554.96 L223.17
						 564.56 L252.51 578 L282.18 595.28" class="st8"/>
		</g>
		<g id="shape75-169" v:mID="75" v:groupContext="shape" v:layerMember="0"
				transform="translate(242.28,-411.424) rotate(1.3564)">
			<title>Lien droit / courbé.75</title>
			<v:userDefs>
				<v:ud v:nameU="Scale" v:val="VT0(1):26"/>
				<v:ud v:nameU="AntiScale" v:val="VT0(1):26"/>
				<v:ud v:nameU="visVersion" v:val="VT0(15):26"/>
			</v:userDefs>
			<path d="M0 595.28 L29.58 614.42 L59.24 629.32 L88.98 639.95 L118.8 646.34 L148.7 648.46 L178.68 646.34 L208.73 639.95
						 L238.87 629.32 L269.08 614.42 L299.37 595.28" class="st8"/>
		</g>
		<g id="shape76-172" v:mID="76" v:groupContext="shape" v:layerMember="0"
				transform="translate(313.195,-411.423) rotate(1.36115)">
			<title>Lien droit / courbé.76</title>
			<v:userDefs>
				<v:ud v:nameU="Scale" v:val="VT0(1):26"/>
				<v:ud v:nameU="AntiScale" v:val="VT0(1):26"/>
				<v:ud v:nameU="visVersion" v:val="VT0(15):26"/>
			</v:userDefs>
			<path d="M0 595.28 L33.74 612.01 L67.33 624.56 L100.77 632.92 L134.07 637.1 L167.22 637.1 L200.22 632.92 L233.07 624.56
						 L265.77 612.01 L298.33 595.28" class="st7"/>
		</g>
		<g id="shape77-175" v:mID="77" v:groupContext="shape" v:layerMember="0"
				transform="translate(347.195,-411.455) rotate(1.22317)">
			<title>Lien droit / courbé.77</title>
			<v:userDefs>
				<v:ud v:nameU="Scale" v:val="VT0(1):26"/>
				<v:ud v:nameU="AntiScale" v:val="VT0(1):26"/>
				<v:ud v:nameU="visVersion" v:val="VT0(15):26"/>
			</v:userDefs>
			<path d="M0 595.28 L48.22 609.87 L93.61 620.82 L136.17 628.12 L175.89 631.77 L212.77 631.77 L246.82 628.12 L278.04 620.82
						 L306.43 609.87 L331.98 595.28" class="st7"/>
		</g>
		<g id="shape78-178" v:mID="78" v:groupContext="shape" v:layerMember="0"
				transform="translate(601.32,743.184) rotate(-1.94632) scale(1,-1)">
			<title>Lien droit / courbé.78</title>
			<v:userDefs>
				<v:ud v:nameU="Scale" v:val="VT0(1):26"/>
				<v:ud v:nameU="AntiScale" v:val="VT0(1):26"/>
				<v:ud v:nameU="visVersion" v:val="VT0(15):26"/>
			</v:userDefs>
			<path d="M0 595.28 L31.84 606.05 L60.79 613.74 L86.86 618.36 L110.03 619.9 L130.33 618.36 L147.73 613.74 L162.25 606.05
						 L173.88 595.28" class="st7"/>
		</g>
		<g id="shape79-181" v:mID="79" v:groupContext="shape" v:layerMember="0"
				transform="translate(271.339,-411.541) rotate(0.742774)">
			<title>Lien droit / courbé.79</title>
			<v:userDefs>
				<v:ud v:nameU="Scale" v:val="VT0(1):26"/>
				<v:ud v:nameU="AntiScale" v:val="VT0(1):26"/>
				<v:ud v:nameU="visVersion" v:val="VT0(15):26"/>
			</v:userDefs>
			<path d="M0 595.28 L43.22 615.36 L86.08 631.43 L128.58 643.48 L170.72 651.52 L212.5 655.53 L253.91 655.53 L294.96 651.52
						 L335.65 643.48 L375.98 631.43 L415.95 615.36 L455.55 595.28" class="st8"/>
		</g>
		<g id="shape80-184" v:mID="80" v:groupContext="shape" transform="translate(728.15,778.961) rotate(180)">
			<title>Crochet.80</title>
			<v:userDefs>
				<v:ud v:nameU="visVersion" v:val="VT0(15):26"/>
			</v:userDefs>
			<path d="M-0 595.28 A3.34229 3.34229 0 0 1 2.95 592.32 L6.06 592.32 A3.34229 3.34229 -180 0 0 9.02 589.37 A3.34229 3.34229
						 -180 0 0 11.97 592.32 L14.76 592.32 A3.34229 3.34229 0 0 1 17.72 595.28" class="st6"/>
		</g>
		<g id="shape86-187" v:mID="86" v:groupContext="shape" transform="translate(167.598,977.386) rotate(180)">
			<title>Crochet.86</title>
			<v:userDefs>
				<v:ud v:nameU="visVersion" v:val="VT0(15):26"/>
			</v:userDefs>
			<path d="M0 595.28 A4.01075 4.01075 0 0 1 3.54 591.73 L41.54 591.73 A4.01075 4.01075 -180 0 0 45.08 588.19 A4.01075 4.01075
						 -180 0 0 48.62 591.73 L85.04 591.73 A4.01075 4.01075 0 0 1 88.58 595.28" class="st7"/>
		</g>
		<g id="shape87-190" v:mID="87" v:groupContext="shape" transform="translate(183.898,-248.598)">
			<title>Crochet.87</title>
			<v:userDefs>
				<v:ud v:nameU="visVersion" v:val="VT0(15):26"/>
			</v:userDefs>
			<path d="M0 595.28 A4.01075 4.01075 0 0 1 3.54 591.73 L23.5 591.73 A4.01075 4.01075 -180 0 0 27.05 588.19 A4.01075 4.01075
						 -180 0 0 30.59 591.73 L49.61 591.73 A4.01075 4.01075 0 0 1 53.15 595.28" class="st7"/>
		</g>
		<g id="shape88-193" v:mID="88" v:groupContext="shape" transform="translate(254.764,-248.598)">
			<title>Crochet.88</title>
			<v:userDefs>
				<v:ud v:nameU="visVersion" v:val="VT0(15):26"/>
			</v:userDefs>
			<path d="M0 595.28 A4.01075 4.01075 0 0 1 3.54 591.73 L23.5 591.73 A4.01075 4.01075 -180 0 0 27.05 588.19 A4.01075 4.01075
						 -180 0 0 30.59 591.73 L49.61 591.73 A4.01075 4.01075 0 0 1 53.15 595.28" class="st7"/>
		</g>
		<g id="shape89-196" v:mID="89" v:groupContext="shape" transform="translate(343.346,977.386) rotate(180)">
			<title>Crochet.89</title>
			<v:userDefs>
				<v:ud v:nameU="visVersion" v:val="VT0(15):26"/>
			</v:userDefs>
			<path d="M0 595.28 A1.67115 1.67115 0 0 1 1.48 593.8 L7.54 593.8 A1.67115 1.67115 -180 0 0 9.02 592.32 A1.67115 1.67115
						 -180 0 0 10.49 593.8 L16.24 593.8 A1.67115 1.67115 0 0 1 17.72 595.28" class="st7"/>
		</g>
		<g id="shape90-199" v:mID="90" v:groupContext="shape" v:layerMember="0"
				transform="translate(62.6259,981.452) rotate(-174.226)">
			<title>Lien droit / courbé.90</title>
			<v:userDefs>
				<v:ud v:nameU="Scale" v:val="VT0(1):26"/>
				<v:ud v:nameU="AntiScale" v:val="VT0(1):26"/>
				<v:ud v:nameU="visVersion" v:val="VT0(15):26"/>
			</v:userDefs>
			<path d="M0 595.28 L14.06 585.15 L27.19 579.07 L39.39 577.05 L50.66 579.07 L61.01 585.15 L70.43 595.28" class="st7"/>
		</g>
		<g id="shape91-202" v:mID="91" v:groupContext="shape" v:layerMember="0"
				transform="translate(122.094,940.968) rotate(-3.29552) scale(1,-1)">
			<title>Lien droit / courbé.91</title>
			<v:userDefs>
				<v:ud v:nameU="Scale" v:val="VT0(1):26"/>
				<v:ud v:nameU="AntiScale" v:val="VT0(1):26"/>
				<v:ud v:nameU="visVersion" v:val="VT0(15):26"/>
			</v:userDefs>
			<path d="M0 595.28 L21.63 603.74 L41.92 609.38 L60.88 612.2 L78.49 612.2 L94.76 609.38 L109.69 603.74 L123.28 595.28"
					class="st7"/>
		</g>
		<g id="shape92-205" v:mID="92" v:groupContext="shape" v:layerMember="0"
				transform="translate(149.895,941.359) rotate(-2.55994) scale(1,-1)">
			<title>Lien droit / courbé.92</title>
			<v:userDefs>
				<v:ud v:nameU="Scale" v:val="VT0(1):26"/>
				<v:ud v:nameU="AntiScale" v:val="VT0(1):26"/>
				<v:ud v:nameU="visVersion" v:val="VT0(15):26"/>
			</v:userDefs>
			<path d="M0 595.28 L27.84 603.74 L53.96 609.38 L78.35 612.2 L101.02 612.2 L121.96 609.38 L141.17 603.74 L158.66 595.28"
					class="st7"/>
		</g>
		<g id="shape93-208" v:mID="93" v:groupContext="shape" v:layerMember="0"
				transform="translate(195.58,-213.051) rotate(1.12448)">
			<title>Lien droit / courbé.93</title>
			<v:userDefs>
				<v:ud v:nameU="Scale" v:val="VT0(1):26"/>
				<v:ud v:nameU="AntiScale" v:val="VT0(1):26"/>
				<v:ud v:nameU="visVersion" v:val="VT0(15):26"/>
			</v:userDefs>
			<path d="M0 595.28 L26.4 603.74 L51.17 609.38 L74.3 612.2 L95.8 612.2 L115.65 609.38 L133.88 603.74 L150.46 595.28"
					class="st7"/>
		</g>
	</g>
</svg>
